<svg width="2169" height="2252" viewBox="0 0 2169 2252" fill="none" xmlns="http://www.w3.org/2000/svg">
<path d="M1807.5 424.017L1116.36 2.49309C1111.79 -0.154802 1107.65 -0.396721 1104.67 1.33585L1068.88 22.1396C1071.86 20.4005 1076 20.6492 1080.57 23.2905L1790.3 433.602C1799.32 438.806 1806.62 451.457 1806.59 461.813L1804.28 2058.46C1804.26 2063.62 1802.45 2067.24 1799.5 2068.95L1816.71 2059.36C1819.64 2057.65 1821.47 2054.03 1821.49 2048.89L1823.79 452.229C1823.82 441.873 1816.52 429.221 1807.5 424.017Z" fill="#E6E6E6"/>
<path d="M1806.71 461.69L1806.51 545.586L1804.37 2058.33C1804.37 2068.69 1797.06 2072.86 1788.03 2067.68L1078.33 1657.39C1069.19 1652.1 1061.87 1639.5 1061.98 1629.14L1064 116.392L1064.21 32.4964C1064.31 22.1402 1071.63 17.9755 1080.66 23.1536L1790.46 433.452C1799.4 438.729 1806.71 451.327 1806.71 461.69Z" fill="#BFBFBF"/>
<path d="M1786.72 464.606L1786.53 545.533L1784.47 2032.38C1784.47 2042.38 1777.41 2046.39 1768.69 2041.39L1097.74 1653.46C1088.93 1648.37 1081.87 1636.22 1081.97 1626.23L1083.93 139.379L1084.12 58.452C1084.22 48.4619 1091.28 44.4478 1100 49.4428L1771.05 437.368C1779.67 442.468 1786.72 454.616 1786.72 464.606Z" fill="#1F2125"/>
<path d="M1806.72 461.69L1806.51 545.586L1064.01 116.392L1064.22 32.4966C1064.31 22.1404 1071.63 17.9757 1080.66 23.1538L1790.46 433.453C1799.4 438.729 1806.72 451.328 1806.72 461.69Z" fill="#BFBFBF"/>
<path d="M1178.35 288.125L1147.85 270.525C1142.95 267.694 1138.98 260.11 1138.98 253.572C1138.98 247.04 1142.95 244.033 1147.85 246.864L1178.35 264.471C1183.24 267.295 1187.21 274.886 1187.21 281.417C1187.21 287.955 1183.24 290.956 1178.35 288.125Z" fill="#006EFF"/>
<path d="M1178.35 703.014L1147.85 685.407C1142.95 682.583 1138.98 674.992 1138.98 668.461C1138.98 661.923 1142.95 658.922 1147.85 661.753L1178.35 679.353C1183.24 682.184 1187.21 689.774 1187.21 696.306C1187.21 702.837 1183.24 705.838 1178.35 703.014Z" fill="#006EFF"/>
<path d="M1264.13 752.539L1203.08 717.293C1198.18 714.469 1194.21 706.878 1194.21 700.34C1194.21 693.809 1198.18 690.808 1203.08 693.639L1264.13 728.885C1269.03 731.709 1273 739.3 1273 745.831C1273 752.369 1269.03 755.37 1264.13 752.539Z" fill="#B3D4FF"/>
<path d="M1484.3 879.658L1289.23 767.034C1284.34 764.21 1280.37 756.619 1280.37 750.087C1280.37 743.549 1284.34 740.548 1289.23 743.379L1484.3 856.003C1489.2 858.827 1493.18 866.418 1493.18 872.95C1493.18 879.481 1489.2 882.488 1484.3 879.658Z" fill="#FFAD66"/>
<path d="M1298.74 357.637L1206.27 304.254C1201.37 301.423 1197.41 293.833 1197.41 287.301C1197.41 280.77 1201.37 277.762 1206.27 280.593L1298.74 333.976C1303.64 336.807 1307.61 344.398 1307.61 350.929C1307.61 357.467 1303.64 360.468 1298.74 357.637Z" fill="#B3D4FF"/>
<path d="M1605.07 534.497L1327.04 373.977C1322.14 371.146 1318.16 363.561 1318.16 357.023C1318.16 350.492 1322.14 347.491 1327.04 350.315L1605.07 510.836C1609.97 513.667 1613.94 521.258 1613.94 527.789C1613.94 534.321 1609.97 537.328 1605.07 534.497Z" fill="#FFAD66"/>
<path d="M1207.06 345.268L1176.58 327.668C1171.67 324.837 1167.71 317.246 1167.71 310.715C1167.71 304.183 1171.67 301.176 1176.58 304.007L1207.06 321.607C1211.96 324.438 1215.94 332.028 1215.94 338.56C1215.94 345.091 1211.96 348.099 1207.06 345.268Z" fill="#006EFF"/>
<path d="M1327.45 414.779L1234.99 361.39C1230.1 358.566 1226.12 350.975 1226.12 344.437C1226.12 337.906 1230.1 334.905 1234.99 337.736L1327.45 391.118C1332.36 393.949 1336.33 401.533 1336.33 408.071C1336.33 414.603 1332.36 417.604 1327.45 414.779Z" fill="#B3D4FF"/>
<path d="M1633.79 591.639L1355.76 431.118C1350.85 428.287 1346.88 420.696 1346.88 414.165C1346.88 407.627 1350.85 404.626 1355.76 407.457L1633.79 567.978C1638.69 570.802 1642.66 578.4 1642.66 584.931C1642.66 591.462 1638.69 594.47 1633.79 591.639Z" fill="#FFAD66"/>
<path d="M1207.06 389.209L1176.58 371.602C1171.67 368.778 1167.71 361.181 1167.71 354.649C1167.71 348.118 1171.67 345.11 1176.58 347.948L1207.06 365.542C1211.96 368.379 1215.94 375.963 1215.94 382.501C1215.94 389.033 1211.96 392.034 1207.06 389.209Z" fill="#006EFF"/>
<path d="M1207.06 430.896L1176.58 413.289C1171.67 410.464 1167.71 402.867 1167.71 396.336C1167.71 389.804 1171.67 386.797 1176.58 389.628L1207.06 407.228C1211.96 410.059 1215.94 417.65 1215.94 424.188C1215.94 430.719 1211.96 433.72 1207.06 430.896Z" fill="#006EFF"/>
<path d="M1207.06 599.04L1176.58 581.44C1171.67 578.609 1167.71 571.025 1167.71 564.487C1167.71 557.955 1171.67 554.955 1176.58 557.779L1207.06 575.386C1211.96 578.21 1215.94 585.801 1215.94 592.332C1215.94 598.864 1211.96 601.871 1207.06 599.04Z" fill="#006EFF"/>
<path d="M1207.06 639.981L1176.58 622.374C1171.67 619.543 1167.71 611.952 1167.71 605.421C1167.71 598.889 1171.67 595.882 1176.58 598.719L1207.06 616.313C1211.96 619.151 1215.94 626.735 1215.94 633.266C1215.94 639.804 1211.96 642.805 1207.06 639.981Z" fill="#006EFF"/>
<path d="M1207.06 756.769L1176.58 739.168C1171.67 736.338 1167.71 728.753 1167.71 722.215C1167.71 715.684 1171.67 712.683 1176.58 715.507L1207.06 733.114C1211.96 735.939 1215.94 743.529 1215.94 750.061C1215.94 756.599 1211.96 759.6 1207.06 756.769Z" fill="#006EFF"/>
<path d="M1290.39 804.882L1231.06 770.63C1226.17 767.799 1222.2 760.208 1222.2 753.676C1222.2 747.145 1226.17 744.144 1231.06 746.969L1290.39 781.221C1295.29 784.052 1299.27 791.643 1299.27 798.174C1299.27 804.706 1295.29 807.713 1290.39 804.882Z" fill="#B3D4FF"/>
<path d="M1520.39 937.669L1317.59 820.587C1312.68 817.756 1308.71 810.165 1308.71 803.634C1308.71 797.096 1312.68 794.095 1317.59 796.926L1520.39 914.008C1525.29 916.839 1529.25 924.43 1529.25 930.961C1529.25 937.493 1525.29 940.5 1520.39 937.669Z" fill="#FFAD66"/>
<path d="M1629 883.58L1598.51 865.98C1593.61 863.156 1589.64 855.565 1589.64 849.027C1589.64 842.496 1593.61 839.495 1598.51 842.319L1629 859.926C1633.9 862.75 1637.88 870.341 1637.88 876.872C1637.88 883.41 1633.9 886.411 1629 883.58Z" fill="#006EFF"/>
<path d="M1189.88 457.872L1159.39 440.272C1154.49 437.441 1150.52 429.85 1150.52 423.312C1150.52 416.781 1154.49 413.78 1159.39 416.611L1189.88 434.211C1194.78 437.042 1198.75 444.626 1198.75 451.164C1198.75 457.696 1194.78 460.697 1189.88 457.872Z" fill="#006EFF"/>
<path d="M1274.19 506.547L1215.85 472.864C1210.95 470.033 1206.97 462.442 1206.97 455.91C1206.97 449.379 1210.95 446.371 1215.85 449.202L1274.19 482.886C1279.09 485.717 1283.07 493.308 1283.07 499.839C1283.07 506.377 1279.09 509.378 1274.19 506.547Z" fill="#B3D4FF"/>
<path d="M1587.89 687.662L1546.72 663.89C1541.82 661.066 1537.85 653.475 1537.85 646.944C1537.85 640.406 1541.82 637.405 1546.72 640.236L1587.89 663.995C1592.79 666.826 1596.76 674.416 1596.76 680.948V680.954C1596.76 687.486 1592.79 690.487 1587.89 687.662Z" fill="#B3D4FF"/>
<path d="M1395.45 576.556L1300.53 521.754C1295.63 518.923 1291.66 511.333 1291.66 504.801C1291.66 498.27 1295.63 495.262 1300.53 498.093L1395.45 552.895C1400.35 555.726 1404.32 563.31 1404.32 569.848C1404.32 576.379 1400.35 579.38 1395.45 576.556Z" fill="#FFAD66"/>
<path d="M1189.88 503.5L1159.39 485.893C1154.49 483.069 1150.52 475.478 1150.52 468.94C1150.52 462.409 1154.49 459.408 1159.39 462.239L1189.88 479.839C1194.78 482.67 1198.75 490.261 1198.75 496.792C1198.75 503.324 1194.78 506.325 1189.88 503.5Z" fill="#006EFF"/>
<path d="M1189.88 669.958L1159.39 652.358C1154.49 649.527 1150.52 641.936 1150.52 635.405C1150.52 628.873 1154.49 625.866 1159.39 628.697L1189.88 646.297C1194.78 649.128 1198.75 656.719 1198.75 663.25C1198.75 669.788 1194.78 672.789 1189.88 669.958Z" fill="#006EFF"/>
<path d="M1274.19 552.175L1215.85 518.491C1210.95 515.66 1206.97 508.07 1206.97 501.538C1206.97 495 1210.95 491.999 1215.85 494.83L1274.19 528.514C1279.09 531.345 1283.07 538.936 1283.07 545.467C1283.07 552.005 1279.09 555.006 1274.19 552.175Z" fill="#B3D4FF"/>
<path d="M1274.19 678.732L1235.48 656.385C1230.59 653.561 1226.61 645.97 1226.61 639.438C1226.61 632.9 1230.59 629.899 1235.48 632.73L1274.19 655.077C1279.09 657.908 1283.07 665.492 1283.07 672.024C1283.07 678.562 1279.09 681.563 1274.19 678.732Z" fill="#B3D4FF"/>
<path d="M1439.88 774.396L1401.17 752.042C1396.27 749.218 1392.29 741.621 1392.29 735.089C1392.29 728.558 1396.27 725.557 1401.17 728.388L1439.88 750.735C1444.78 753.565 1448.75 761.15 1448.75 767.688C1448.75 774.219 1444.78 777.22 1439.88 774.396Z" fill="#B3D4FF"/>
<path d="M1704.85 847.288L1190.81 550.509C1185.91 547.678 1181.94 540.087 1181.94 533.556C1181.94 527.024 1185.91 524.023 1190.81 526.848L1704.85 823.627C1709.75 826.458 1713.72 834.049 1713.72 840.58C1713.72 847.112 1709.75 850.119 1704.85 847.288Z" fill="#F2F2F2"/>
<path d="M1373.85 609.717L1300.53 567.383C1295.63 564.552 1291.66 556.962 1291.66 550.43C1291.66 543.899 1295.63 540.891 1300.53 543.722L1373.85 586.056C1378.75 588.88 1382.72 596.471 1382.72 603.002V603.009C1382.72 609.54 1378.75 612.541 1373.85 609.717Z" fill="#FFAD66"/>
<path d="M1373.85 736.273L1300.53 693.939C1295.63 691.108 1291.66 683.524 1291.66 676.986C1291.66 670.455 1295.63 667.454 1300.53 670.278L1373.85 712.612C1378.75 715.443 1382.72 723.033 1382.72 729.565C1382.72 736.096 1378.75 739.104 1373.85 736.273Z" fill="#FFAD66"/>
<path d="M1571.19 850.21L1467.68 790.446C1462.78 787.622 1458.81 780.025 1458.81 773.493C1458.81 766.962 1462.78 763.961 1467.68 766.792L1571.19 826.549C1576.09 829.38 1580.07 836.971 1580.07 843.502C1580.07 850.034 1576.09 853.041 1571.19 850.21Z" fill="#F2F2F2"/>
<path d="M1521.36 649.252L1426.45 594.451C1421.55 591.626 1417.57 584.029 1417.57 577.498C1417.57 570.966 1421.55 567.965 1426.45 570.796L1521.36 625.591C1526.27 628.422 1530.24 636.013 1530.24 642.544C1530.24 649.082 1526.27 652.083 1521.36 649.252Z" fill="#F2F2F2"/>
<path d="M1327.45 458.715L1234.99 405.332C1230.1 402.501 1226.12 394.911 1226.12 388.379C1226.12 381.848 1230.1 378.847 1234.99 381.671L1327.45 435.054C1332.36 437.885 1336.33 445.476 1336.33 452.014C1336.33 458.545 1332.36 461.546 1327.45 458.715Z" fill="#B3D4FF"/>
<path d="M1526.27 573.509L1433.81 520.12C1428.91 517.289 1424.94 509.705 1424.94 503.167C1424.94 496.635 1428.91 493.634 1433.81 496.459L1526.27 549.842C1531.18 552.679 1535.15 560.263 1535.15 566.795C1535.15 573.333 1531.18 576.333 1526.27 573.509Z" fill="#B3D4FF"/>
<path d="M1402.56 502.081L1355.76 475.053C1350.85 472.229 1346.88 464.638 1346.88 458.1C1346.88 451.569 1350.85 448.568 1355.76 451.392L1402.56 478.42C1407.47 481.251 1411.44 488.842 1411.44 495.373C1411.44 501.905 1407.47 504.912 1402.56 502.081Z" fill="#FFAD66"/>
<path d="M1708.53 678.725L1557.53 591.541C1552.62 588.716 1548.65 581.126 1548.65 574.594C1548.65 568.063 1552.62 565.055 1557.53 567.886L1708.53 655.07C1713.42 657.895 1717.4 665.485 1717.4 672.017C1717.4 678.555 1713.42 681.556 1708.53 678.725Z" fill="#FFAD66"/>
<path d="M1207.06 793.951L1176.58 776.351C1171.67 773.52 1167.71 765.93 1167.71 759.398C1167.71 752.867 1171.67 749.859 1176.58 752.69L1207.06 770.29C1211.96 773.121 1215.94 780.712 1215.94 787.243C1215.94 793.775 1211.96 796.782 1207.06 793.951Z" fill="#006EFF"/>
<path d="M1327.45 863.463L1234.99 810.074C1230.1 807.249 1226.12 799.659 1226.12 793.121C1226.12 786.589 1230.1 783.588 1234.99 786.419L1327.45 839.802C1332.36 842.633 1336.33 850.217 1336.33 856.755C1336.33 863.287 1332.36 866.287 1327.45 863.463Z" fill="#B3D4FF"/>
<path d="M1526.27 978.25L1433.81 924.867C1428.91 922.036 1424.94 914.446 1424.94 907.914C1424.94 901.376 1428.91 898.375 1433.81 901.206L1526.27 954.589C1531.18 957.42 1535.15 965.011 1535.15 971.542C1535.15 978.074 1531.18 981.075 1526.27 978.25Z" fill="#B3D4FF"/>
<path d="M1402.56 906.829L1355.76 879.801C1350.85 876.97 1346.88 869.38 1346.88 862.848C1346.88 856.317 1350.85 853.309 1355.76 856.14L1402.56 883.162C1407.47 885.993 1411.44 893.583 1411.44 900.121C1411.44 906.653 1407.47 909.654 1402.56 906.829Z" fill="#FFAD66"/>
<path d="M1708.53 1083.47L1557.53 996.289C1552.62 993.458 1548.65 985.867 1548.65 979.336C1548.65 972.804 1552.62 969.803 1557.53 972.628L1708.53 1059.81C1713.42 1062.64 1717.4 1070.23 1717.4 1076.76C1717.4 1083.3 1713.42 1086.3 1708.53 1083.47Z" fill="#FFAD66"/>
<path d="M1178.35 836.781L1147.85 819.175C1142.95 816.35 1138.98 808.759 1138.98 802.221C1138.98 795.69 1142.95 792.689 1147.85 795.52L1178.35 813.12C1183.24 815.951 1187.21 823.535 1187.21 830.073C1187.21 836.605 1183.24 839.606 1178.35 836.781Z" fill="#006EFF"/>
<path d="M1178.35 1251.66L1147.85 1234.06C1142.95 1231.23 1138.98 1223.64 1138.98 1217.11C1138.98 1210.57 1142.95 1207.58 1147.85 1210.4L1178.35 1228.01C1183.24 1230.83 1187.21 1238.42 1187.21 1244.96C1187.21 1251.49 1183.24 1254.49 1178.35 1251.66Z" fill="#006EFF"/>
<path d="M1264.13 1301.19L1203.08 1265.95C1198.18 1263.12 1194.21 1255.53 1194.21 1249C1194.21 1242.46 1198.18 1239.46 1203.08 1242.29L1264.13 1277.53C1269.03 1280.37 1273 1287.95 1273 1294.49C1273 1301.02 1269.03 1304.02 1264.13 1301.19Z" fill="#B3D4FF"/>
<path d="M1484.3 1428.31L1289.23 1315.69C1284.34 1312.87 1280.37 1305.27 1280.37 1298.74C1280.37 1292.2 1284.34 1289.2 1289.23 1292.03L1484.3 1404.65C1489.2 1407.48 1493.18 1415.07 1493.18 1421.6C1493.18 1428.14 1489.2 1431.14 1484.3 1428.31Z" fill="#FFAD66"/>
<path d="M1298.74 906.287L1206.27 852.904C1201.37 850.074 1197.41 842.489 1197.41 835.951C1197.41 829.42 1201.37 826.419 1206.27 829.243L1298.74 882.633C1303.64 885.457 1307.61 893.048 1307.61 899.586C1307.61 906.117 1303.64 909.118 1298.74 906.287Z" fill="#B3D4FF"/>
<path d="M1605.07 1083.15L1327.04 922.626C1322.14 919.801 1318.16 912.211 1318.16 905.679C1318.16 899.141 1322.14 896.14 1327.04 898.971L1605.07 1059.49C1609.97 1062.32 1613.94 1069.91 1613.94 1076.44C1613.94 1082.98 1609.97 1085.98 1605.07 1083.15Z" fill="#FFAD66"/>
<path d="M1207.06 893.917L1176.58 876.317C1171.67 873.486 1167.71 865.895 1167.71 859.364C1167.71 852.833 1171.67 849.825 1176.58 852.656L1207.06 870.256C1211.96 873.087 1215.94 880.678 1215.94 887.216C1215.94 893.747 1211.96 896.748 1207.06 893.917Z" fill="#006EFF"/>
<path d="M1327.45 963.429L1234.99 910.046C1230.1 907.215 1226.12 899.625 1226.12 893.093C1226.12 886.555 1230.1 883.554 1234.99 886.385L1327.45 939.768C1332.36 942.599 1336.33 950.19 1336.33 956.721C1336.33 963.252 1332.36 966.26 1327.45 963.429Z" fill="#B3D4FF"/>
<path d="M1633.79 1140.29L1355.76 979.767C1350.85 976.936 1346.88 969.346 1346.88 962.814C1346.88 956.283 1350.85 953.275 1355.76 956.106L1633.79 1116.63C1638.69 1119.46 1642.66 1127.05 1642.66 1133.58C1642.66 1140.12 1638.69 1143.12 1633.79 1140.29Z" fill="#FFAD66"/>
<path d="M1207.06 937.859L1176.58 920.258C1171.67 917.427 1167.71 909.837 1167.71 903.299C1167.71 896.767 1171.67 893.766 1176.58 896.597L1207.06 914.198C1211.96 917.029 1215.94 924.619 1215.94 931.151C1215.94 937.682 1211.96 940.69 1207.06 937.859Z" fill="#006EFF"/>
<path d="M1207.06 979.545L1176.58 961.938C1171.67 959.114 1167.71 951.523 1167.71 944.985C1167.71 938.454 1171.67 935.453 1176.58 938.284L1207.06 955.884C1211.96 958.715 1215.94 966.299 1215.94 972.837C1215.94 979.369 1211.96 982.369 1207.06 979.545Z" fill="#006EFF"/>
<path d="M1207.06 1147.7L1176.58 1130.09C1171.67 1127.27 1167.71 1119.67 1167.71 1113.14C1167.71 1106.61 1171.67 1103.6 1176.58 1106.44L1207.06 1124.04C1211.96 1126.86 1215.94 1134.45 1215.94 1140.99C1215.94 1147.52 1211.96 1150.52 1207.06 1147.7Z" fill="#006EFF"/>
<path d="M1207.06 1188.63L1176.58 1171.02C1171.67 1168.2 1167.71 1160.61 1167.71 1154.07C1167.71 1147.54 1171.67 1144.54 1176.58 1147.37L1207.06 1164.97C1211.96 1167.8 1215.94 1175.39 1215.94 1181.92C1215.94 1188.45 1211.96 1191.45 1207.06 1188.63Z" fill="#006EFF"/>
<path d="M1207.06 1305.43L1176.58 1287.82C1171.67 1284.99 1167.71 1277.4 1167.71 1270.87C1167.71 1264.34 1171.67 1261.33 1176.58 1264.16L1207.06 1281.76C1211.96 1284.59 1215.94 1292.18 1215.94 1298.71C1215.94 1305.25 1211.96 1308.25 1207.06 1305.43Z" fill="#006EFF"/>
<path d="M1290.39 1353.53L1231.06 1319.28C1226.17 1316.45 1222.2 1308.86 1222.2 1302.33C1222.2 1295.79 1226.17 1292.79 1231.06 1295.62L1290.39 1329.88C1295.29 1332.71 1299.27 1340.29 1299.27 1346.83C1299.27 1353.36 1295.29 1356.36 1290.39 1353.53Z" fill="#B3D4FF"/>
<path d="M1520.39 1486.33L1317.59 1369.24C1312.68 1366.41 1308.71 1358.82 1308.71 1352.28C1308.71 1345.75 1312.68 1342.75 1317.59 1345.58L1520.39 1462.66C1525.29 1465.49 1529.25 1473.08 1529.25 1479.61C1529.25 1486.14 1525.29 1489.15 1520.39 1486.33Z" fill="#FFAD66"/>
<path d="M1629 1432.24L1598.51 1414.63C1593.61 1411.81 1589.64 1404.21 1589.64 1397.68C1589.64 1391.15 1593.61 1388.14 1598.51 1390.98L1629 1408.58C1633.9 1411.41 1637.88 1419 1637.88 1425.53C1637.88 1432.06 1633.9 1435.07 1629 1432.24Z" fill="#006EFF"/>
<path d="M1189.88 1006.52L1159.39 988.92C1154.49 986.089 1150.52 978.499 1150.52 971.967C1150.52 965.429 1154.49 962.428 1159.39 965.259L1189.88 982.86C1194.78 985.691 1198.75 993.281 1198.75 999.813C1198.75 1006.34 1194.78 1009.35 1189.88 1006.52Z" fill="#006EFF"/>
<path d="M1274.19 1055.2L1215.85 1021.51C1210.95 1018.68 1206.97 1011.09 1206.97 1004.56C1206.97 998.028 1210.95 995.021 1215.85 997.852L1274.19 1031.54C1279.09 1034.37 1283.07 1041.96 1283.07 1048.49C1283.07 1055.03 1279.09 1058.03 1274.19 1055.2Z" fill="#B3D4FF"/>
<path d="M1587.89 1236.31L1546.72 1212.55C1541.82 1209.72 1537.85 1202.13 1537.85 1195.59C1537.85 1189.06 1541.82 1186.06 1546.72 1188.89L1587.89 1212.65C1592.79 1215.48 1596.76 1223.07 1596.76 1229.6C1596.76 1236.14 1592.79 1239.14 1587.89 1236.31Z" fill="#B3D4FF"/>
<path d="M1395.45 1125.21L1300.53 1070.4C1295.63 1067.57 1291.66 1059.98 1291.66 1053.45C1291.66 1046.92 1295.63 1043.92 1300.53 1046.74L1395.45 1101.54C1400.35 1104.38 1404.32 1111.97 1404.32 1118.5C1404.32 1125.04 1400.35 1128.04 1395.45 1125.21Z" fill="#FFAD66"/>
<path d="M1189.88 1052.15L1159.39 1034.55C1154.49 1031.72 1150.52 1024.13 1150.52 1017.6C1150.52 1011.06 1154.49 1008.06 1159.39 1010.89L1189.88 1028.49C1194.78 1031.32 1198.75 1038.91 1198.75 1045.44C1198.75 1051.97 1194.78 1054.98 1189.88 1052.15Z" fill="#006EFF"/>
<path d="M1189.88 1218.61L1159.39 1201.01C1154.49 1198.18 1150.52 1190.59 1150.52 1184.05C1150.52 1177.52 1154.49 1174.52 1159.39 1177.35L1189.88 1194.95C1194.78 1197.78 1198.75 1205.37 1198.75 1211.91C1198.75 1218.44 1194.78 1221.44 1189.88 1218.61Z" fill="#006EFF"/>
<path d="M1274.19 1100.83L1215.85 1067.14C1210.95 1064.31 1206.97 1056.72 1206.97 1050.19C1206.97 1043.66 1210.95 1040.66 1215.85 1043.48L1274.19 1077.17C1279.09 1080 1283.07 1087.59 1283.07 1094.12C1283.07 1100.66 1279.09 1103.66 1274.19 1100.83Z" fill="#B3D4FF"/>
<path d="M1274.19 1227.39L1235.48 1205.03C1230.59 1202.21 1226.61 1194.62 1226.61 1188.09C1226.61 1181.55 1230.59 1178.55 1235.48 1181.38L1274.19 1203.73C1279.09 1206.56 1283.07 1214.15 1283.07 1220.68C1283.07 1227.21 1279.09 1230.21 1274.19 1227.39Z" fill="#B3D4FF"/>
<path d="M1439.88 1323.05L1401.17 1300.69C1396.27 1297.87 1392.29 1290.27 1392.29 1283.74C1392.29 1277.21 1396.27 1274.21 1401.17 1277.04L1439.88 1299.38C1444.78 1302.22 1448.75 1309.81 1448.75 1316.34C1448.75 1322.88 1444.78 1325.88 1439.88 1323.05Z" fill="#B3D4FF"/>
<path d="M1704.85 1395.94L1190.81 1099.16C1185.91 1096.33 1181.94 1088.74 1181.94 1082.21V1082.2C1181.94 1075.67 1185.91 1072.67 1190.81 1075.5L1704.85 1372.28C1709.75 1375.11 1713.72 1382.7 1713.72 1389.23C1713.72 1395.76 1709.75 1398.77 1704.85 1395.94Z" fill="#F2F2F2"/>
<path d="M1373.85 1158.37L1300.53 1116.03C1295.63 1113.2 1291.66 1105.61 1291.66 1099.08C1291.66 1092.55 1295.63 1089.54 1300.53 1092.37L1373.85 1134.71C1378.75 1137.54 1382.72 1145.12 1382.72 1151.66C1382.72 1158.19 1378.75 1161.19 1373.85 1158.37Z" fill="#FFAD66"/>
<path d="M1373.85 1284.92L1300.53 1242.59C1295.63 1239.76 1291.66 1232.17 1291.66 1225.64C1291.66 1219.1 1295.63 1216.1 1300.53 1218.93L1373.85 1261.27C1378.75 1264.1 1382.72 1271.68 1382.72 1278.21C1382.72 1284.75 1378.75 1287.75 1373.85 1284.92Z" fill="#FFAD66"/>
<path d="M1571.19 1398.86L1467.68 1339.1C1462.78 1336.27 1458.81 1328.67 1458.81 1322.14C1458.81 1315.61 1462.78 1312.61 1467.68 1315.44L1571.19 1375.21C1576.09 1378.03 1580.07 1385.62 1580.07 1392.15C1580.07 1398.68 1576.09 1401.69 1571.19 1398.86Z" fill="#F2F2F2"/>
<path d="M1521.36 1197.9L1426.45 1143.11C1421.55 1140.28 1417.57 1132.69 1417.57 1126.15C1417.57 1119.62 1421.55 1116.61 1426.45 1119.45L1521.36 1174.25C1526.27 1177.07 1530.24 1184.67 1530.24 1191.2C1530.24 1197.73 1526.27 1200.73 1521.36 1197.9Z" fill="#F2F2F2"/>
<path d="M1327.45 1007.36L1234.99 953.982C1230.1 951.151 1226.12 943.567 1226.12 937.035C1226.12 930.497 1230.1 927.496 1234.99 930.327L1327.45 983.71C1332.36 986.534 1336.33 994.132 1336.33 1000.66C1336.33 1007.19 1332.36 1010.2 1327.45 1007.36Z" fill="#B3D4FF"/>
<path d="M1526.27 1122.16L1433.81 1068.78C1428.91 1065.94 1424.94 1058.35 1424.94 1051.82C1424.94 1045.28 1428.91 1042.28 1433.81 1045.11L1526.27 1098.5C1531.18 1101.33 1535.15 1108.92 1535.15 1115.45C1535.15 1121.98 1531.18 1124.98 1526.27 1122.16Z" fill="#B3D4FF"/>
<path d="M1402.56 1050.73L1355.76 1023.7C1350.85 1020.88 1346.88 1013.29 1346.88 1006.76C1346.88 1000.22 1350.85 997.217 1355.76 1000.05L1402.56 1027.08C1407.47 1029.9 1411.44 1037.49 1411.44 1044.02C1411.44 1050.55 1407.47 1053.56 1402.56 1050.73Z" fill="#FFAD66"/>
<path d="M1708.53 1227.38L1557.53 1140.2C1552.62 1137.37 1548.65 1129.78 1548.65 1123.24C1548.65 1116.71 1552.62 1113.71 1557.53 1116.54L1708.53 1203.72C1713.42 1206.55 1717.4 1214.14 1717.4 1220.67C1717.4 1227.2 1713.42 1230.21 1708.53 1227.38Z" fill="#FFAD66"/>
<path d="M1207.06 1342.6L1176.58 1325C1171.67 1322.17 1167.71 1314.58 1167.71 1308.05C1167.71 1301.52 1171.67 1298.51 1176.58 1301.34L1207.06 1318.94C1211.96 1321.77 1215.94 1329.36 1215.94 1335.89C1215.94 1342.43 1211.96 1345.43 1207.06 1342.6Z" fill="#006EFF"/>
<path d="M1327.45 1412.11L1234.99 1358.73C1230.1 1355.9 1226.12 1348.31 1226.12 1341.78C1226.12 1335.24 1230.1 1332.24 1234.99 1335.07L1327.45 1388.45C1332.36 1391.28 1336.33 1398.87 1336.33 1405.4C1336.33 1411.94 1332.36 1414.94 1327.45 1412.11Z" fill="#B3D4FF"/>
<path d="M1526.27 1526.9L1433.81 1473.52C1428.91 1470.69 1424.94 1463.1 1424.94 1456.56C1424.94 1450.03 1428.91 1447.03 1433.81 1449.86L1526.27 1503.25C1531.18 1506.07 1535.15 1513.66 1535.15 1520.19C1535.15 1526.72 1531.18 1529.72 1526.27 1526.9Z" fill="#B3D4FF"/>
<path d="M1402.56 1455.48L1355.76 1428.45C1350.85 1425.63 1346.88 1418.03 1346.88 1411.5C1346.88 1404.97 1350.85 1401.96 1355.76 1404.79L1402.56 1431.82C1407.47 1434.64 1411.44 1442.24 1411.44 1448.77C1411.44 1455.31 1407.47 1458.31 1402.56 1455.48Z" fill="#FFAD66"/>
<path d="M1708.53 1632.13L1557.53 1544.94C1552.62 1542.11 1548.65 1534.52 1548.65 1527.99C1548.65 1521.45 1552.62 1518.45 1557.53 1521.28L1708.53 1608.46C1713.42 1611.29 1717.4 1618.88 1717.4 1625.41C1717.4 1631.95 1713.42 1634.95 1708.53 1632.13Z" fill="#FFAD66"/>
<path d="M1713.18 443.057C1713.18 457.748 1723.56 475.649 1736.37 483.043C1749.17 490.438 1759.54 484.514 1759.54 469.823C1759.54 455.139 1749.17 437.232 1736.37 429.837C1723.56 422.449 1713.18 428.366 1713.18 443.057Z" fill="#404040"/>
<path d="M1648.41 405.659C1648.41 420.35 1658.79 438.258 1671.59 445.646C1684.4 453.04 1694.78 447.123 1694.78 432.426C1694.78 417.735 1684.4 399.834 1671.59 392.446C1658.79 385.052 1648.41 390.968 1648.41 405.659Z" fill="#404040"/>
<path d="M1583.64 368.261C1583.64 382.959 1594.02 400.854 1606.82 408.248C1619.62 415.642 1630.01 409.726 1630.01 395.035C1630.01 380.344 1619.62 362.436 1606.82 355.048C1594.02 347.654 1583.64 353.571 1583.64 368.261Z" fill="#404040"/>
<path d="M1535.51 486.109L895.756 116.751C883.745 109.815 872.899 109.612 864.452 114.411L801.334 150.925L875.632 208.689L893.794 204.086V1720.12C893.794 1755.68 915.415 1796.98 942.084 1812.38L1503.02 2222.98V2248.29L1568.31 2210.17V2209.91C1577.78 2203.62 1583.79 2190.46 1583.79 2171.85V578.367C1583.79 542.813 1562.17 501.506 1535.51 486.109Z" fill="#999999"/>
<path d="M1437.68 621.459V549.914L1374.77 597.177L1099.81 481.945L893.801 332.002V204.06L875.547 208.624L801.387 150.926L864.465 114.418C872.945 109.691 883.7 109.854 895.763 116.699L1535.47 486.188C1553.07 496.289 1568.39 517.642 1576.7 541.107L1437.68 621.459Z" fill="#E6E6E6"/>
<path d="M1472.01 2245.37L832.252 1876.02C805.583 1860.62 783.969 1819.31 783.969 1783.76V190.278C783.969 154.724 805.583 138.379 832.252 153.776L1472.01 523.134C1498.67 538.531 1520.28 579.838 1520.28 615.392V2208.87C1520.28 2244.43 1498.67 2260.77 1472.01 2245.37Z" fill="#CCCCCC"/>
<path d="M798.078 1793.17V197.162C798.078 171.246 813.841 159.334 833.272 170.559L1470.98 538.74C1490.43 549.966 1506.18 580.067 1506.18 605.983V2201.99C1506.18 2227.91 1490.43 2239.82 1470.98 2228.6L833.272 1860.41C813.841 1849.19 798.078 1819.08 798.078 1793.17Z" fill="#333333"/>
<path d="M1487.46 622.923V2168.89C1487.46 2191.89 1471.23 2200.98 1451.33 2189.5L853.003 1844.05C832.971 1832.48 816.73 1804.47 816.73 1781.48V235.678C816.73 212.69 832.971 203.426 853.003 214.992L962.319 278.103C966.876 280.738 970.883 286.517 972.145 292.277L977.219 315.376C981.024 337.494 998.389 362.097 1018.72 373.832L1285.48 527.854C1305.81 539.584 1323.31 535.112 1326.98 517.309L1332.04 500.061C1333.31 495.759 1337.32 494.615 1341.88 497.25L1451.33 560.44C1471.23 571.927 1487.46 599.923 1487.46 622.923Z" fill="#80C5FF"/>
<path d="M1043.11 351.432C1043.11 363.73 1034.42 368.686 1023.7 362.501C1012.98 356.31 1004.29 341.318 1004.29 329.027C1004.29 316.722 1012.98 311.766 1023.7 317.958C1034.42 324.143 1043.11 339.128 1043.11 351.432Z" fill="#666666"/>
<path d="M1034.34 346.366C1034.34 353.107 1029.58 355.827 1023.7 352.434C1017.83 349.04 1013.06 340.829 1013.06 334.088C1013.06 327.347 1017.83 324.634 1023.7 328.027C1029.58 331.414 1034.34 339.632 1034.34 346.366Z" fill="#333333"/>
<path d="M1245.35 440.859L1055.53 331.276C1052.41 329.465 1049.87 324.627 1049.87 320.455V312.78C1049.87 308.609 1052.41 306.693 1055.53 308.497L1245.35 418.087C1248.47 419.892 1251 424.736 1251 428.901V436.583C1251 440.748 1248.47 442.67 1245.35 440.859Z" fill="black"/>
<path d="M1566.06 823.948C1562.3 821.764 1557.08 822.078 1551.32 825.399C1539.87 832.009 1530.64 847.994 1530.68 861.149L1531.22 1050.55C1531.24 1057.04 1533.55 1061.64 1537.28 1063.81L1548.77 1070.48C1545.03 1068.32 1542.72 1063.72 1542.71 1057.22L1542.17 867.824C1542.13 854.67 1551.36 838.684 1562.81 832.074C1568.57 828.746 1573.79 828.439 1577.55 830.623L1566.06 823.948Z" fill="#E6E6E6"/>
<path d="M1562.81 832.074C1574.26 825.464 1583.55 830.76 1583.59 843.914L1584.12 1033.31C1584.16 1046.35 1574.93 1062.46 1563.48 1069.06C1552.03 1075.67 1542.74 1070.26 1542.7 1057.22L1542.17 867.824C1542.13 854.669 1551.36 838.684 1562.81 832.074Z" fill="#BFBFBF"/>
<path d="M1566.18 853.368C1575.57 847.948 1583.19 852.29 1583.22 863.077L1583.66 1018.45C1583.7 1029.14 1576.12 1042.35 1566.73 1047.77C1557.34 1053.19 1549.72 1048.75 1549.69 1038.05L1549.25 882.691C1549.22 871.904 1556.79 858.788 1566.18 853.368Z" fill="#CCCCCC"/>
<path d="M1008.8 503.167L897.102 438.683C893.474 436.591 890.185 436.394 887.818 437.774L866.818 449.974C869.192 448.594 872.48 448.784 876.109 450.883L987.804 515.367C995.029 519.538 1000.88 529.672 1000.85 537.975L1000.49 666.316C1000.47 670.435 999.03 673.332 996.676 674.691L1017.68 662.491C1020.02 661.125 1021.47 658.235 1021.48 654.116L1021.85 525.775C1021.87 517.472 1016.02 507.338 1008.8 503.167Z" fill="#8482FF"/>
<path d="M987.805 515.366C995.029 519.538 1000.88 529.672 1000.85 537.975L1000.49 666.316C1000.47 674.619 994.578 677.947 987.354 673.776L875.665 609.291C868.434 605.12 862.615 595.032 862.635 586.729L863.001 458.388C863.027 450.084 868.885 446.711 876.11 450.882L987.805 515.366Z" fill="#4D4BB7"/>
<path d="M923.757 568.998L913.27 597.17L869.551 571.927L896.683 533.647C900.495 528.273 910.028 533.771 913.839 543.552L923.757 568.998Z" fill="white"/>
<path d="M940.979 613.169L913.271 597.17L923.758 568.998L940.979 613.169Z" fill="#E6E6E6"/>
<path d="M984.692 638.405L940.979 613.169L923.758 568.998L937.017 533.431C940.999 522.781 956.958 531.993 960.933 547.239L984.692 638.405Z" fill="white"/>
<path d="M923.955 518.943C923.955 525.128 919.588 527.626 914.201 524.507C908.807 521.395 904.439 513.863 904.439 507.672C904.439 501.487 908.807 498.996 914.201 502.108C919.588 505.22 923.955 512.758 923.955 518.943Z" fill="#E6E6E6"/>
<path d="M1419.69 990.104L1088.84 798.854C1085.07 796.677 1081.66 796.468 1079.2 797.9L1058.21 810.106C1060.67 808.668 1064.08 808.877 1067.85 811.054L1398.7 1002.3C1406.19 1006.63 1412.23 1017.09 1412.2 1025.74L1412.07 1072.57C1412.06 1076.86 1410.55 1079.88 1408.11 1081.3L1429.11 1069.1C1431.54 1067.68 1433.06 1064.66 1433.07 1060.37L1433.2 1013.54C1433.22 1004.89 1427.18 994.432 1419.69 990.104Z" fill="#8482FF"/>
<path d="M1398.7 1002.3C1406.19 1006.63 1412.23 1017.09 1412.21 1025.74L1412.07 1072.57C1412.05 1081.19 1405.97 1084.68 1398.48 1080.35L1067.63 889.105C1060.13 884.771 1054.09 874.277 1054.12 865.667L1054.24 818.835C1054.27 810.185 1060.35 806.72 1067.85 811.055L1398.7 1002.3Z" fill="#4D4BB7"/>
<path d="M1389.58 1030.97L1081.49 852.145C1078.6 850.478 1076.26 852.25 1076.26 856.094C1076.26 859.939 1078.6 864.404 1081.49 866.065L1389.58 1044.89C1392.47 1046.56 1394.8 1044.79 1394.8 1040.95C1394.8 1037.11 1392.47 1032.64 1389.58 1030.97Z" fill="white"/>
<path d="M1419.69 1130.83L1088.84 939.585C1085.07 937.414 1081.66 937.205 1079.2 938.637L1058.21 950.837C1060.67 949.405 1064.08 949.608 1067.85 951.785L1398.7 1143.03C1406.19 1147.37 1412.23 1157.83 1412.2 1166.47L1412.07 1213.3C1412.06 1217.59 1410.55 1220.61 1408.11 1222.03L1429.11 1209.83C1431.54 1208.41 1433.06 1205.39 1433.07 1201.1L1433.2 1154.27C1433.22 1145.62 1427.18 1135.16 1419.69 1130.83Z" fill="#8482FF"/>
<path d="M1398.7 1143.03C1406.19 1147.37 1412.23 1157.83 1412.21 1166.47L1412.07 1213.3C1412.05 1221.92 1405.97 1225.41 1398.48 1221.09L1067.63 1029.84C1060.13 1025.51 1054.09 1015.01 1054.12 1006.4L1054.24 959.572C1054.27 950.922 1060.35 947.457 1067.85 951.785L1398.7 1143.03Z" fill="#4D4BB7"/>
<path d="M1389.58 1171.71L1081.49 992.883C1078.6 991.215 1076.26 992.981 1076.26 996.825C1076.26 1000.67 1078.6 1005.13 1081.49 1006.8L1389.58 1185.63C1392.47 1187.29 1394.8 1185.52 1394.8 1181.69C1394.8 1177.84 1392.47 1173.37 1389.58 1171.71Z" fill="white"/>
<path d="M1008.8 1676.7L897.102 1612.21C893.474 1610.12 890.185 1609.93 887.818 1611.31L866.818 1623.51C869.192 1622.12 872.48 1622.32 876.109 1624.41L987.804 1688.9C995.029 1693.07 1000.88 1703.2 1000.85 1711.51L1000.49 1839.85C1000.47 1843.97 999.03 1846.86 996.676 1848.22L1017.68 1836.02C1020.02 1834.66 1021.47 1831.77 1021.48 1827.65L1021.85 1699.31C1021.87 1691 1016.02 1680.87 1008.8 1676.7Z" fill="#8482FF"/>
<path d="M987.805 1688.9C995.029 1693.07 1000.88 1703.2 1000.85 1711.51L1000.49 1839.85C1000.47 1848.15 994.578 1851.47 987.354 1847.31L875.665 1782.82C868.434 1778.65 862.615 1768.56 862.635 1760.25L863.001 1631.91C863.027 1623.61 868.885 1620.24 876.11 1624.41L987.805 1688.9Z" fill="#4D4BB7"/>
<path d="M984.136 1732.5V1732.68L930.936 1737.15L876.926 1670.6C876.926 1668.51 878.403 1667.67 880.221 1668.72L980.847 1726.82C982.665 1727.87 984.136 1730.42 984.136 1732.5Z" fill="white"/>
<path d="M930.936 1741.37L984.136 1736.89V1801.67C984.136 1803.76 982.665 1804.59 980.847 1803.55L880.221 1745.46C878.403 1744.4 876.926 1741.86 876.926 1739.76V1674.78L930.138 1740.38L930.936 1741.37Z" fill="white"/>
<path d="M1415.09 1362.95L918.143 1076.04C913.089 1073.12 908.513 1072.85 905.205 1074.77L884.211 1086.97C887.519 1085.05 892.096 1085.32 897.15 1088.24L1394.1 1375.15C1404.15 1380.96 1412.24 1394.98 1412.21 1406.53L1412.1 1443.93C1412.09 1449.67 1410.06 1453.72 1406.79 1455.62L1427.79 1443.42C1431.06 1441.52 1433.08 1437.47 1433.1 1431.73L1433.2 1394.33C1433.23 1382.78 1425.14 1368.75 1415.09 1362.95Z" fill="#8482FF"/>
<path d="M1394.1 1375.15C1404.14 1380.96 1412.24 1394.98 1412.21 1406.53L1412.09 1443.93C1412.07 1455.48 1403.92 1460.16 1393.86 1454.35L896.92 1167.44C886.89 1161.65 878.77 1147.58 878.803 1136.03L878.914 1098.63C878.947 1087.08 887.119 1082.45 897.148 1088.24L1394.1 1375.15Z" fill="#4D4BB7"/>
<path d="M1380.99 1403.35L902.654 1125.51C899.764 1123.85 897.43 1125.61 897.43 1129.46C897.43 1133.31 899.764 1137.76 902.654 1139.43L1380.99 1417.27C1383.87 1418.93 1386.22 1417.17 1386.22 1413.32C1386.22 1409.48 1383.87 1405.01 1380.99 1403.35Z" fill="white"/>
<path d="M1415.09 1530.12L918.143 1243.2C913.089 1240.29 908.513 1240.02 905.205 1241.94L884.211 1254.14C887.519 1252.22 892.096 1252.49 897.15 1255.4L1394.1 1542.32C1404.15 1548.12 1412.24 1562.14 1412.21 1573.7L1412.1 1611.1C1412.09 1616.84 1410.06 1620.89 1406.79 1622.79L1427.79 1610.59C1431.06 1608.69 1433.08 1604.64 1433.1 1598.9L1433.2 1561.5C1433.23 1549.95 1425.14 1535.92 1415.09 1530.12Z" fill="#8482FF"/>
<path d="M1394.1 1542.32C1404.14 1548.12 1412.24 1562.14 1412.21 1573.7L1412.09 1611.1C1412.07 1622.64 1403.92 1627.32 1393.86 1621.52L896.92 1334.61C886.89 1328.82 878.77 1314.75 878.803 1303.2L878.914 1265.8C878.947 1254.25 887.119 1249.62 897.148 1255.4L1394.1 1542.32Z" fill="#4D4BB7"/>
<path d="M1380.99 1570.52L902.654 1292.68C899.764 1291.02 897.43 1292.78 897.43 1296.63C897.43 1300.47 899.764 1304.94 902.654 1306.6L1380.99 1584.44C1383.87 1586.1 1386.22 1584.34 1386.22 1580.49C1386.22 1576.65 1383.87 1572.18 1380.99 1570.52Z" fill="white"/>
<path d="M1415.09 1697.28L918.143 1410.37C913.089 1407.46 908.513 1407.18 905.205 1409.1L884.211 1421.3C887.519 1419.38 892.096 1419.66 897.15 1422.57L1394.1 1709.49C1404.15 1715.29 1412.24 1729.32 1412.21 1740.86L1412.1 1778.26C1412.09 1784.01 1410.06 1788.05 1406.79 1789.96L1427.79 1777.76C1431.06 1775.85 1433.08 1771.81 1433.1 1766.07L1433.2 1728.66C1433.23 1717.12 1425.14 1703.09 1415.09 1697.28Z" fill="#8482FF"/>
<path d="M1394.1 1709.49C1404.14 1715.29 1412.24 1729.32 1412.21 1740.86L1412.09 1778.27C1412.07 1789.82 1403.92 1794.49 1393.86 1788.69L896.92 1501.77C886.89 1495.99 878.77 1481.92 878.803 1470.37L878.914 1432.97C878.947 1421.42 887.119 1416.79 897.148 1422.57L1394.1 1709.49Z" fill="#4D4BB7"/>
<path d="M1380.99 1737.68L902.654 1459.85C899.764 1458.18 897.43 1459.95 897.43 1463.79C897.43 1467.63 899.764 1472.1 902.654 1473.77L1380.99 1751.6C1383.87 1753.27 1386.22 1751.5 1386.22 1747.66C1386.22 1743.82 1383.87 1739.35 1380.99 1737.68Z" fill="white"/>
<path d="M1212.7 1794.21L1101.02 1729.72C1097.39 1727.62 1094.11 1727.43 1091.73 1728.81L1070.74 1741.01C1073.11 1739.63 1076.39 1739.82 1080.02 1741.92L1191.71 1806.41C1198.94 1810.58 1204.79 1820.71 1204.77 1829.01L1204.4 1957.36C1204.39 1961.47 1202.94 1964.37 1200.6 1965.73L1221.59 1953.53C1223.93 1952.17 1225.39 1949.27 1225.39 1945.16L1225.76 1816.81C1225.78 1808.51 1219.94 1798.38 1212.7 1794.21Z" fill="#8482FF"/>
<path d="M1191.71 1806.41C1198.94 1810.58 1204.79 1820.71 1204.77 1829.01L1204.4 1957.36C1204.38 1965.66 1198.49 1968.99 1191.26 1964.81L1079.57 1900.32C1072.35 1896.15 1066.52 1886.06 1066.55 1877.77L1066.92 1749.43C1066.94 1741.12 1072.8 1737.75 1080.02 1741.92L1191.71 1806.41Z" fill="#4D4BB7"/>
<path d="M1089.44 1799.34C1086.2 1797.46 1083.56 1798.97 1083.56 1802.69V1853.52C1083.56 1857.25 1086.2 1861.8 1089.44 1863.68L1181.7 1916.94C1184.94 1918.81 1187.59 1917.31 1187.59 1913.58V1862.75C1187.59 1859.03 1184.94 1854.47 1181.7 1852.59L1089.44 1799.34ZM1181.7 1921.77L1089.44 1868.51C1083.88 1865.3 1079.35 1857.48 1079.35 1851.1V1800.26C1079.35 1793.88 1083.88 1791.29 1089.44 1794.51L1181.7 1847.77C1187.26 1850.98 1191.79 1858.79 1191.79 1865.18V1916.01C1191.79 1922.4 1187.26 1924.99 1181.7 1921.77Z" fill="white"/>
<path d="M1135.57 1835.37C1124.36 1828.9 1115.24 1834.1 1115.24 1846.97C1115.24 1859.83 1124.36 1875.56 1135.57 1882.02C1146.78 1888.5 1155.9 1883.31 1155.9 1870.44C1155.9 1857.58 1146.78 1841.85 1135.57 1835.37ZM1135.57 1886.85C1122.04 1879.04 1111.04 1860.06 1111.04 1844.54C1111.04 1829.01 1122.04 1822.74 1135.57 1830.55C1149.1 1838.36 1160.11 1857.34 1160.11 1872.86C1160.11 1888.39 1149.1 1894.67 1135.57 1886.85Z" fill="white"/>
<path d="M1110.65 1805.87L1160.49 1834.64V1827.28C1160.49 1825.75 1159.41 1823.88 1158.07 1823.1L1113.07 1797.13C1111.73 1796.36 1110.65 1796.97 1110.65 1798.51V1805.87ZM1164.7 1841.89L1106.44 1808.26V1796.08C1106.44 1791.89 1109.42 1790.19 1113.07 1792.3L1158.07 1818.28C1161.73 1820.39 1164.7 1825.52 1164.7 1829.71V1841.89Z" fill="white"/>
<path d="M1420.17 1913.77L1308.49 1849.28C1304.84 1847.18 1301.55 1846.99 1299.17 1848.38L1278.18 1860.58C1280.56 1859.19 1283.85 1859.38 1287.49 1861.49L1399.18 1925.97C1406.41 1930.14 1412.23 1940.26 1412.2 1948.56L1411.84 2076.9C1411.83 2081.03 1410.38 2083.93 1408.03 2085.29L1429.03 2073.09C1431.37 2071.73 1432.82 2068.83 1432.83 2064.71L1433.2 1936.36C1433.22 1928.06 1427.4 1917.94 1420.17 1913.77Z" fill="#8482FF"/>
<path d="M1399.18 1925.97C1406.41 1930.14 1412.23 1940.26 1412.21 1948.56L1411.84 2076.9C1411.82 2085.21 1405.96 2088.55 1398.74 2084.38L1287.04 2019.89C1279.81 2015.71 1273.97 2005.62 1273.99 1997.32L1274.35 1868.98C1274.37 1860.67 1280.26 1857.32 1287.49 1861.49L1399.18 1925.97Z" fill="#4D4BB7"/>
<path d="M1343.59 1923.17C1318.06 1908.43 1297.37 1916.13 1297.37 1940.37C1297.37 1956.06 1306.07 1974.83 1319.12 1990.11C1318.52 1994.2 1315.86 2002.79 1304.18 1996.2C1304.18 1996.2 1320.3 2013.97 1335.58 2005.61C1338.19 2007.55 1340.85 2009.36 1343.59 2010.93C1369.11 2025.68 1389.81 2017.98 1389.81 1993.74C1389.81 1969.5 1369.11 1937.91 1343.59 1923.17Z" fill="white"/>
<path d="M1412.16 735.587L1095.15 552.562C1089.29 549.175 1083.98 548.861 1080.14 551.091L1059.15 563.291C1062.98 561.061 1068.3 561.375 1074.16 564.762L1391.16 747.787C1402.82 754.514 1412.24 770.839 1412.21 784.262L1411.89 894.12C1411.87 900.776 1409.52 905.457 1405.74 907.66L1426.73 895.46C1430.52 893.257 1432.87 888.576 1432.89 881.92L1433.2 772.062C1433.24 758.633 1423.81 742.314 1412.16 735.587Z" fill="#8482FF"/>
<path d="M1391.16 747.786C1402.82 754.513 1412.24 770.839 1412.21 784.261L1411.89 894.119C1411.85 907.509 1402.37 912.922 1390.72 906.188L1073.71 723.164C1062.05 716.436 1052.63 700.111 1052.67 686.721L1052.98 576.863C1053.02 563.44 1062.51 558.033 1074.16 564.761L1391.16 747.786Z" fill="#4D4BB7"/>
<path d="M1383.2 774.16L1084.3 600.883C1081.41 599.223 1079.07 600.988 1079.07 604.832C1079.07 608.677 1081.41 613.142 1084.3 614.803L1383.2 788.073C1386.08 789.74 1388.41 787.975 1388.41 784.13C1388.41 780.286 1386.08 775.821 1383.2 774.16Z" fill="white"/>
<path d="M1383.2 815.644L1084.3 642.374C1081.41 640.707 1079.07 642.478 1079.07 646.323C1079.07 650.167 1081.41 654.633 1084.3 656.3L1383.2 829.57C1386.08 831.231 1388.41 829.465 1388.41 825.621C1388.41 821.777 1386.08 817.311 1383.2 815.644Z" fill="white"/>
<path d="M1383.2 857.134L1084.3 683.864C1081.41 682.203 1079.07 683.969 1079.07 687.806C1079.07 691.657 1081.41 696.123 1084.3 697.783L1383.2 871.053C1386.08 872.721 1388.41 870.955 1388.41 867.111C1388.41 863.267 1386.08 858.801 1383.2 857.134Z" fill="white"/>
<path d="M1008.8 790.355L897.102 725.871C893.474 723.772 890.185 723.583 887.818 724.962L866.818 737.155C869.192 735.776 872.48 735.972 876.109 738.064L987.804 802.555C995.029 806.726 1000.88 816.854 1000.85 825.163L1000.49 953.504C1000.47 957.623 999.03 960.513 996.676 961.873L1017.68 949.673C1020.02 948.313 1021.47 945.417 1021.48 941.305L1021.85 812.964C1021.87 804.66 1016.02 794.526 1008.8 790.355Z" fill="#8482FF"/>
<path d="M987.805 802.555C995.029 806.726 1000.88 816.854 1000.85 825.164L1000.49 953.505C1000.47 961.808 994.578 965.129 987.354 960.958L875.665 896.474C868.434 892.302 862.615 882.214 862.635 873.911L863.001 745.57C863.027 737.267 868.885 733.893 876.11 738.064L987.805 802.555Z" fill="#4D4BB7"/>
<path d="M921.241 865.778V826.419L950.943 863.254L921.241 865.778ZM930.557 807.204C909.479 795.03 892.408 804.765 892.408 828.956C892.408 853.12 909.479 882.58 930.557 894.754C951.616 906.915 968.707 897.167 968.707 873.002C968.707 848.812 951.616 819.364 930.557 807.204Z" fill="white"/>
<path d="M832.611 2091.28L861.365 2078.59L891.715 1925.5L862.954 1938.18L832.611 2091.28Z" fill="#733118"/>
<path d="M866.086 1922.37L894.847 1909.69L926.033 1752.36L897.272 1765.05L866.086 1922.37Z" fill="#733118"/>
<path d="M900.404 1749.24L929.165 1736.55L960.351 1579.22L931.591 1591.91L900.404 1749.24Z" fill="#733118"/>
<path d="M1017.96 2010.57L1046.72 1997.88L894.847 1909.69L866.086 1922.37L1017.96 2010.57Z" fill="#AB512E"/>
<path d="M934.729 1576.11L963.483 1563.42L994.662 1406.13L965.902 1418.83L934.729 1576.11Z" fill="#733118"/>
<path d="M1052.28 1837.44L1081.04 1824.74L929.165 1736.55L900.404 1749.24L1052.28 1837.44Z" fill="#AB512E"/>
<path d="M999.566 1248.98L1028.32 1236.29L1002.34 1220.88L973.584 1233.57L999.566 1248.98Z" fill="#AB512E"/>
<path d="M969.041 1403.02L997.789 1390.32L1028.32 1236.29L999.567 1248.98L969.041 1403.02Z" fill="#733118"/>
<path d="M1086.59 1664.3L1115.36 1651.61L963.483 1563.41L934.729 1576.11L1086.59 1664.3Z" fill="#AB512E"/>
<path d="M1120.91 1491.22L1149.67 1478.52L997.789 1390.32L969.041 1403.02L1120.91 1491.22Z" fill="#AB512E"/>
<path d="M1010.43 2194.88L1039.18 2182.18L1206.15 1339.89L1177.39 1352.58L1010.43 2194.88Z" fill="#733118"/>
<path d="M866.086 1922.37L897.272 1765.05L1049.15 1853.25L1017.96 2010.57L866.086 1922.37ZM1052.28 1837.44L900.404 1749.24L931.59 1591.91L1083.47 1680.11L1052.28 1837.44ZM1086.59 1664.3L934.729 1576.11L965.902 1418.83L1117.78 1507.02L1086.59 1664.3ZM806.623 2075.86L832.612 2091.28L862.954 1938.18L1014.83 2026.38L984.476 2179.48L1010.43 2194.88L1177.39 1352.58L1151.44 1337.18L1120.9 1491.22L969.04 1403.02L999.566 1248.98L973.584 1233.57L806.623 2075.86Z" fill="#8C3C1D"/>
<path d="M1177.39 1352.58L1206.15 1339.89L1180.2 1324.5L1151.44 1337.18L1177.39 1352.58Z" fill="#AB512E"/>
<path d="M1189.21 1098.51C1189.07 1097.5 1188.72 1096.35 1187.76 1095.99C1186.89 1095.67 1185.95 1096.18 1185.19 1096.73C1182.24 1098.85 1179.91 1101.81 1178.53 1105.18C1178.7 1100.76 1178.96 1096.11 1180.06 1091.83C1181.19 1087.42 1182.34 1082.99 1183.35 1078.55C1184.94 1071.63 1185.96 1064.38 1184.34 1057.46C1183.72 1054.85 1182.41 1052 1179.83 1051.25C1176.98 1050.41 1173.75 1053.27 1174.25 1056.2C1172.67 1055.82 1170.73 1055.54 1169.69 1056.78C1169.05 1057.53 1169 1058.6 1168.98 1059.6C1168.89 1063.87 1168.87 1068.15 1168.94 1072.43C1167.77 1070.97 1165.86 1069.59 1164.17 1070.38C1162.49 1071.16 1162.3 1073.44 1162.4 1075.29C1162.83 1083.71 1164.15 1092.17 1163.19 1100.55C1162.76 1104.39 1161.85 1108.16 1160.68 1111.83C1158.69 1118.16 1148.76 1138.61 1144.73 1142.07C1136.16 1149.43 1125.8 1154.35 1115.48 1158.74C1098.38 1166.01 1080.54 1171.31 1062.88 1177.04C1052.93 1180.28 1043 1183.64 1033.29 1187.56C1030.42 1188.73 1028.12 1188.39 1025.2 1187.73C1011.18 1184.54 997.343 1180 984.934 1172.75C979.351 1169.49 974.081 1165.67 969.328 1161.29C962.764 1155.25 958.521 1146.54 950.878 1141.84C942.006 1136.38 930.996 1132.83 922.588 1141.43C915.952 1148.21 916.213 1159.59 920.666 1167.97C925.125 1176.36 932.879 1182.41 940.476 1188.1C967.72 1208.49 996.951 1227.93 1030.26 1234.89C1031.3 1235.1 1032.37 1235.3 1033.4 1235.05C1035.14 1234.61 1036.21 1233.02 1036.97 1231.32C1037.81 1232.32 1038.66 1233.32 1039.59 1234.26C1040.35 1235.01 1041.2 1235.77 1042.25 1235.94C1043.34 1236.13 1044.43 1235.63 1045.44 1235.15C1056.54 1229.86 1067.65 1224.56 1078.45 1218.69C1091.82 1211.42 1104.67 1203.24 1117.03 1194.38C1123.29 1189.9 1163.19 1161.34 1169.33 1157.59C1171.69 1156.14 1174.07 1154.68 1176.2 1152.91C1176.99 1152.25 1177.75 1151.55 1178.25 1150.66C1178.79 1149.73 1179.02 1148.66 1179.24 1147.6C1180.12 1143.43 1181.36 1139.3 1181.85 1135.06C1182.66 1127.9 1182.66 1120.52 1185.4 1113.73C1186.33 1111.42 1187.61 1109.26 1188.42 1106.91C1189.33 1104.22 1189.61 1101.32 1189.21 1098.51Z" fill="#FFB78C"/>
<path d="M970.413 1154.63C984.849 1166.15 1001.06 1175.29 1017.09 1184.51C1017.61 1184.81 1018.17 1185.17 1018.27 1185.75C1018.34 1186.11 1018.19 1186.48 1018.06 1186.83C1012.98 1199.46 1005.52 1211.51 994.584 1219.65C991.211 1222.16 987.242 1224.32 983.005 1224.83C981.286 1225.03 978.71 1225.16 977.115 1224.35C975.617 1223.59 975.369 1222.44 974.663 1220.85C973.283 1217.72 971.721 1214.66 970.027 1211.69C966.719 1205.88 962.875 1200.38 958.599 1195.23C950.897 1185.95 941.803 1177.74 935.376 1167.54C933.133 1163.97 931.205 1160.09 930.616 1155.92C930.132 1152.46 930.669 1148.7 932.166 1145.53C933.748 1142.2 933.755 1139.97 933.728 1136.17C933.728 1135.74 933.735 1135.26 934.029 1134.94C934.435 1134.5 935.141 1134.57 935.729 1134.7C942.195 1136.05 948.648 1137.97 954.238 1141.48C958.285 1144.03 961.783 1147.34 965.392 1150.47C967.04 1151.89 968.713 1153.28 970.413 1154.63Z" fill="#4D4D4D"/>
<path d="M836.39 1929.89C836.612 1935.97 838.358 1942.72 843.582 1945.84C846.236 1947.42 849.414 1947.84 852.5 1947.88C858.135 1947.97 863.784 1946.98 869.047 1944.95C874.729 1942.77 879.9 1939.43 885.503 1937.04C909.361 1926.88 937.461 1935.05 962.286 1927.53C968.157 1925.75 974.564 1922.06 975.211 1915.96C975.61 1912.26 973.688 1908.67 971.289 1905.83C966.15 1899.75 958.762 1895.94 951.119 1893.74C943.469 1891.54 935.5 1890.81 927.595 1889.92C911.682 1888.12 895.834 1885.65 879.842 1884.93C870.093 1884.48 859.868 1884.77 850.715 1888.52C846.969 1890.05 844.268 1891.3 843.052 1895.19C841.444 1900.36 839.79 1905.54 838.548 1910.82C837.077 1917.06 836.155 1923.46 836.39 1929.89Z" fill="#1F2125"/>
<path d="M915.567 1416.37C917.299 1403.42 918.483 1390.18 915.88 1377.4C914.789 1372.05 913.317 1362.71 907.969 1360.34C901.68 1357.56 894.573 1356.79 887.774 1357.47C879.784 1358.28 872.082 1361.02 864.877 1364.59C852.213 1370.85 840.778 1379.75 832.116 1390.91C817.68 1409.5 811.462 1433.11 815.463 1456.42C817.412 1467.79 821.884 1478.48 825.028 1489.53C828.095 1500.32 828.552 1511.09 828.16 1522.34C827.676 1536.39 825.551 1550.33 824.015 1564.31C821.106 1590.8 820.334 1617.47 820.399 1644.11C820.426 1657.64 820.681 1671.18 820.981 1684.71C821.289 1698.88 817.575 1711.45 815.136 1725.17C810.082 1753.61 816.562 1780.67 823.413 1808.05C830.71 1837.12 835.437 1866.73 840.837 1896.19C841.131 1897.77 841.445 1899.41 842.406 1900.7C843.38 1902.02 844.917 1902.82 846.434 1903.44C854.39 1906.71 863.413 1906.57 871.788 1904.63C880.163 1902.7 888.042 1899.07 895.848 1895.46C888.349 1863.02 885.237 1829.74 883.916 1796.52C883.118 1776.4 882.981 1756.27 882.903 1736.14C882.863 1726.07 882.844 1716.01 882.778 1705.94C882.746 1701.41 882.308 1696.71 882.864 1692.2C882.935 1691.64 883.027 1691.08 883.118 1690.52C883.825 1686.62 885.178 1682.86 885.963 1678.99C887.054 1673.6 886.832 1667.38 882.994 1663.47C882.942 1663.41 882.863 1663.38 882.811 1663.33C887.532 1661.36 892.174 1659.2 896.619 1656.67C897.286 1656.29 897.973 1655.88 898.424 1655.25C898.875 1654.63 899.052 1653.85 899.202 1653.09C903.393 1632.56 904.694 1611.44 903.086 1590.56C902.321 1580.65 899.954 1571.21 899.012 1561.36C897.986 1550.58 898.051 1539.72 898.712 1528.91C901.039 1491.03 910.539 1453.98 915.567 1416.37Z" fill="#BFBFBF"/>
<path d="M1029.03 1936.17C1025.71 1928.76 1011.49 1926.55 1005.22 1924.6C997.011 1922.04 988.668 1919.94 980.247 1918.23C963.366 1914.81 946.178 1913 928.97 1912.4C918.745 1912.05 908.218 1912.14 898.392 1915.36C895.025 1916.45 891.115 1917.94 889.474 1921.34C887.774 1924.86 887.009 1929.36 885.904 1933.11C884.237 1938.79 882.818 1944.57 882.092 1950.45C881.543 1954.89 881.406 1959.48 882.799 1963.72C885.518 1972.01 894.207 1977.66 902.922 1977.65C908.395 1977.64 913.658 1975.69 919.039 1974.67C930.774 1972.44 942.837 1974.61 954.762 1975.24C963.504 1975.69 972.271 1975.32 980.967 1974.37C988.989 1973.5 999.247 1973.2 1006.71 1969.99C1019 1964.71 1028.92 1953.89 1029.71 1940.04C1029.8 1938.61 1029.55 1937.33 1029.03 1936.17Z" fill="#4D4D4D"/>
<path d="M988.217 1376.3C981.999 1385.81 968.805 1387.62 957.501 1386.48C935.73 1384.27 915.246 1374.66 897.299 1362.15C892.232 1358.62 887.139 1354.76 881.111 1353.41C863.557 1349.47 857.175 1366.93 850.363 1378.87C840.778 1395.68 831.632 1413.2 827.65 1432.29C823.139 1453.94 825.688 1476.98 834.829 1497.11C839.229 1506.82 845.126 1515.89 848.513 1526C854.619 1544.21 852.102 1564.03 849.807 1583.09C845.551 1618.42 842.328 1654.09 844.368 1689.57C844.028 1698.3 844.877 1707.13 845.754 1715.85C846.688 1725.03 847.617 1734.2 848.545 1743.37C850.886 1766.43 854.475 1788.3 861.092 1810.47C866.819 1829.68 874.534 1848.34 878.797 1867.94C883.262 1888.46 883.87 1909.59 886.368 1930.44C886.492 1931.5 886.649 1932.6 887.316 1933.43C888.048 1934.34 889.257 1934.71 890.402 1934.99C904.197 1938.45 919.299 1936.32 931.604 1929.2C936.266 1926.5 940.921 1922.43 941.195 1917.05C941.306 1914.93 940.705 1912.85 940.13 1910.81C923.994 1853.86 920.32 1792.44 925.177 1733.57C926.321 1719.73 932.094 1708.1 937.057 1695.36C942.333 1681.85 947.387 1668.25 952.003 1654.5C961.293 1626.85 968.831 1598.52 972.636 1569.55C976.429 1540.64 976.487 1511.34 980.175 1482.41C984.209 1450.82 992.584 1419.58 991.95 1387.74C991.865 1383.59 991.388 1378.96 988.217 1376.3Z" fill="#F2F2F2"/>
<path d="M846.95 1259.06C854.436 1285.27 868.231 1311.52 863.001 1338.27C859.875 1354.29 850.206 1368.16 840.516 1381.29C839.601 1382.53 838.66 1383.84 838.45 1385.35C838.228 1387.01 838.921 1388.64 839.647 1390.15C849.009 1409.52 867.361 1423.49 887.407 1431.34C907.446 1439.19 929.204 1441.49 950.708 1442.45C963.169 1443 976.239 1442.99 987.321 1437.25C994.055 1393.82 998.193 1349.99 999.697 1306.06C999.959 1298.48 1000.18 1290.72 1002.83 1283.61C1006.81 1272.93 1016.1 1264.21 1017.3 1252.87C1018.42 1242.22 1012.05 1232.35 1005.63 1223.79C980.92 1190.95 950.996 1162.45 921.221 1134.11C912.428 1125.74 903.556 1117.31 893.291 1110.84C887.23 1107.02 881.281 1107.23 875.24 1111.41C871.323 1114.12 868.316 1117.95 865.714 1121.94C860.994 1129.23 857.456 1137.22 854.292 1145.3C854.148 1145.66 854.004 1146.02 853.874 1146.39C839.797 1182.81 836.175 1221.29 846.95 1259.06Z" fill="#1F2125"/>
<path d="M870.122 1113.12C869.435 1116.14 869.167 1119.5 870.998 1122.02C873.024 1124.8 876.823 1125.44 880.21 1126.08C895.659 1128.99 910.481 1136.61 920.562 1148.68C924.394 1153.25 927.584 1158.48 932.35 1162.08C934.717 1163.86 937.633 1165.24 940.575 1164.83C948.055 1163.78 944.687 1156.63 944.733 1151.86C944.792 1145.11 946.505 1137.95 947.564 1131.3C949.754 1117.62 952.54 1104.04 955.92 1090.61C950.199 1089.16 945.04 1086.08 939.98 1083.04C932.213 1078.38 924.439 1073.71 917.163 1068.31C912.919 1065.16 908.787 1061.73 903.93 1059.66C898.935 1057.52 893.456 1056.96 888.075 1057.09C883.538 1057.2 878.909 1056.51 876.999 1061.65C876.143 1063.96 876.182 1066.5 876.208 1068.97C876.306 1078.33 876.058 1087.75 874.43 1096.99C873.593 1101.71 872.103 1106.11 870.769 1110.7C870.54 1111.46 870.311 1112.28 870.122 1113.12Z" fill="#FFB78C"/>
<path d="M992.171 1028.5C992.642 1030.71 993.054 1033.06 992.296 1035.19C991.792 1036.6 990.818 1037.81 990.491 1039.26C990.001 1041.48 991.125 1043.7 992.204 1045.69C995.597 1051.94 998.997 1058.19 1002.4 1064.43C999.455 1068.46 993.061 1068.4 989.864 1072.23C988.249 1074.17 987.745 1076.78 987.307 1079.27C985.45 1089.62 983.587 1099.98 981.73 1110.34C971.596 1112.74 961.345 1114.62 951.028 1115.97C948.563 1116.3 945.981 1116.58 943.666 1115.67C941.705 1114.89 940.162 1113.33 938.756 1111.76C935.226 1107.79 932.153 1103.42 929.629 1098.76C928.472 1096.63 927.295 1094.31 925.144 1093.2C923.235 1092.22 920.966 1092.42 918.822 1092.53C895.089 1093.74 871.068 1080 860.725 1058.6C850.375 1037.21 854.756 1009.4 871.67 992.713C884.236 980.31 902.156 974.518 919.783 973.445C932.44 972.681 945.372 974.295 957.272 978.78C963.306 981.062 969.073 984.089 974.283 987.901C980.155 992.209 982.214 997.551 984.856 1004.23C987.968 1012.1 990.419 1020.22 992.171 1028.5Z" fill="#FFE5CC"/>
<path d="M928.682 1053.95C921.255 1058.11 927.917 1069.32 930.558 1074.86C933.507 1081.05 936.246 1087.42 937.646 1094.13C938.737 1099.35 939.535 1106.22 937.593 1111.35C936.142 1115.19 932.317 1118.03 928.885 1120.27C924.805 1122.94 920.235 1124.79 915.56 1126.17C896.999 1131.7 876.385 1130 858.98 1121.51C846.584 1115.46 835.921 1106.02 828.245 1094.58C824.832 1089.49 820.681 1083.58 821.217 1077.3C821.871 1069.46 824.846 1061.29 826.885 1053.69C831.54 1036.37 838.346 1019.48 848.637 1004.8C858.928 990.111 872.861 977.695 889.434 970.85C913.703 960.827 942.752 958.689 964.772 975.217C968.78 978.231 972.5 981.821 974.742 986.306C980.45 997.708 973.84 1016.63 968.682 1027.22C962.817 1039.26 952.088 1049.76 938.842 1051.75C935.39 1052.27 931.729 1052.25 928.682 1053.95Z" fill="#733118"/>
<path d="M1236.86 1109.44C1236.5 1108.76 1236.05 1108.07 1235.35 1107.75C1234.65 1107.43 1233.65 1107.69 1233.44 1108.43C1234.39 1099.82 1234.06 1091.08 1232.48 1082.56C1232.28 1081.45 1232.03 1080.28 1231.31 1079.4C1230.59 1078.51 1229.27 1078.02 1228.27 1078.59C1227.44 1079.07 1227.06 1080.18 1226.17 1080.55C1225.45 1080.85 1224.64 1080.6 1223.85 1080.56C1221.03 1080.43 1219.03 1083.2 1217.63 1085.66C1205.65 1106.68 1196.1 1129.1 1189.25 1152.31C1187.6 1157.89 1186.61 1164.47 1186.44 1170.3C1186.4 1171.68 1186.48 1173.07 1186.13 1174.4C1185.88 1175.34 1185.44 1176.21 1184.99 1177.07C1183.66 1179.69 1111.2 1253.81 1104.88 1258.02C1103.98 1258.63 1103.07 1259.21 1102.15 1259.8C1091.52 1254.6 1079.89 1251.49 1069.09 1246.54C1048.01 1236.87 1031.22 1220.08 1013.01 1205.71C1001.99 1197.01 990.015 1189.09 976.743 1184.28C970.558 1182.05 963.765 1180.2 957.155 1180.06C952.389 1179.97 949.865 1182.19 946.557 1185.35C941.084 1190.59 936.442 1196.51 933.461 1203.52C930.048 1211.54 928.388 1220.59 931.389 1228.87C934.272 1236.77 939.372 1243.76 945.426 1249.53C953.611 1257.34 963.49 1263.12 973.421 1268.55C1011.45 1289.35 1051.74 1306.19 1093.62 1317.44C1098.36 1318.72 1103.32 1319.93 1108.15 1319.03C1125.62 1315.77 1187.63 1229.89 1207.1 1203.44C1215.21 1195.7 1221.86 1186.4 1226.05 1176C1228.15 1170.8 1229.68 1165.39 1231.18 1159.99C1233.46 1151.73 1235.64 1143.44 1237.73 1135.13C1238.83 1130.77 1239.9 1126.36 1239.92 1121.86C1239.93 1117.55 1238.93 1113.22 1236.86 1109.44Z" fill="#FFE5CC"/>
<path d="M1007.81 1285.47C1016.49 1276.38 1025.22 1267.17 1032.09 1256.6C1037.08 1248.92 1045.92 1234.98 1041.15 1225.47C1040.51 1224.2 1039.48 1223.19 1038.46 1222.21C1020.48 1204.98 999.875 1190.49 977.567 1179.42C973.226 1177.26 968.787 1175.23 964.092 1174.02C955.521 1171.81 946.413 1172.47 937.783 1174.44C934.848 1175.11 931.925 1175.93 929.323 1177.44C913.449 1186.58 913.331 1211.66 918.025 1226.83C923.472 1244.4 936.633 1258.91 952.258 1268.62C967.891 1278.31 985.903 1283.58 1004.01 1286.84C1004.59 1286.95 1005.19 1287.05 1005.77 1286.92C1006.59 1286.72 1007.22 1286.09 1007.81 1285.47Z" fill="#4D4D4D"/>
<path d="M31.3025 1911.34C22.7724 1912.53 14.5208 1917.41 10.5777 1925.08C5.09954 1935.71 8.75429 1948.58 7.51273 1960.47C6.56276 1969.61 2.68375 1978.19 1.02637 1987.22C-0.999107 1998.3 0.407876 2008.51 5.67423 2018.52C8.49342 2023.88 12.4443 2029.27 17.5623 2032.59C23.9067 2036.7 31.1338 2039.73 38.6833 2040.11C46.2379 2040.49 54.1241 2037.97 59.2525 2032.41C62.8431 2028.51 64.9248 2023.26 64.9732 2017.96C65.017 2012.7 63.1446 2007.6 60.7314 2002.93C58.2208 1998.08 54.3928 1993.48 52.5131 1988.35C48.6642 1977.83 59.7049 1968.94 67.3152 1964.13C68.6254 1963.31 70.0023 1962.49 70.9267 1961.25C71.7643 1960.13 72.1703 1958.76 72.5586 1957.42C74.3337 1951.32 76.1212 1945.11 76.0754 1938.75C76.0316 1932.39 73.8865 1925.76 68.9954 1921.7C64.5391 1917.99 58.2822 1916.56 52.9544 1914.47C46.0921 1911.79 38.663 1910.31 31.3025 1911.34Z" fill="#6865F7"/>
<path d="M292.874 1929.76C290.187 1914.58 284.303 1900.18 278.694 1885.82C264.99 1850.77 252.463 1814.78 231.358 1783.63C213.575 1757.38 190.267 1735.44 167.162 1713.72C162.538 1709.38 157.455 1707.17 152.575 1703.77C150.195 1702.11 143.212 1691.51 146.663 1688.58C131.582 1701.4 119.402 1719.88 111.312 1739.51C106.549 1751.06 103.195 1763.01 101.497 1774.43C99.3137 1789.15 100.542 1804.66 106.998 1818.07C113.452 1831.48 125.537 1842.52 140.045 1845.82C142.589 1846.41 145.401 1846.86 147.13 1848.82C147.978 1849.79 148.46 1851.01 148.995 1852.19C155.183 1865.82 168.574 1876.81 177.407 1888.83C182.748 1896.11 187.828 1903.58 192.974 1911.01C189.371 1910.18 185.756 1909.43 182.101 1908.9C170.176 1907.2 158.076 1907.25 146.032 1907.37C140.786 1907.42 135.538 1907.5 130.295 1907.6C114.407 1907.92 98.5167 1908.57 82.7 1910.13C74.7936 1910.91 66.9454 1912 59.0998 1913.24C55.6771 1913.77 54.0733 1914.01 51.7085 1916.86C49.7367 1919.23 48.3473 1922.07 47.4974 1925.02C46.131 1929.76 46.0747 1934.79 46.3859 1939.72C46.7848 1945.97 47.8524 1952.26 50.1531 1958.11C51.2594 1960.91 52.6487 1963.61 54.3904 1966.07C55.2534 1967.29 56.1858 1968.5 57.2456 1969.55C58.7264 1971.02 58.7421 1970.88 60.5656 1970.16C73.6618 1964.95 86.4802 1963.59 100.542 1963.89C127.623 1964.46 154.654 1967.95 180.937 1974.51C198.054 1978.79 214.876 1984.37 232.261 1987.46C245.781 1989.87 261.152 1989.91 274.11 1984.9C297.405 1975.86 296.47 1950.11 292.874 1929.76Z" fill="#333333"/>
<path d="M284.506 2000.9C284.381 2001.38 284.264 2001.86 284.139 2002.35C283.185 2006.27 282.498 2010.31 282.708 2014.35C283.218 2024.19 289.553 2031.73 299.497 2032.83C305.525 2033.5 311.56 2032.16 317.581 2031.48C333.789 2029.63 350.101 2032.5 366.348 2033.87C382.602 2035.24 399.712 2034.94 414.167 2027.4C421.719 2023.45 428.701 2016.78 429.531 2008.3C429.669 2006.99 429.636 2005.63 429.165 2004.41C428.446 2002.59 426.844 2001.26 425.249 2000.14C419.385 1996 412.696 1993.18 406.021 1990.55C398.502 1987.58 390.918 1984.8 383.249 1982.25C369.82 1977.79 356.123 1974.07 342.21 1971.46C335.26 1970.15 328.264 1969.12 321.236 1968.41C318.176 1968.1 314.28 1968.49 311.364 1967.53C309.232 1966.83 308.297 1964.49 306.709 1963.09C303.113 1964.96 300.229 1969.03 297.915 1972.26C291.756 1980.89 287.193 1990.64 284.506 2000.9Z" fill="#9996FF"/>
<path d="M427.321 1783.01C426.752 1775.53 425.353 1765.85 419.227 1760.72C414.729 1756.94 409.675 1753.08 403.902 1752.04C402.176 1751.26 400.385 1750.6 398.593 1750.05C379.274 1744.09 358.496 1748.16 338.522 1751.29C306.761 1756.29 274.659 1758.8 242.59 1761.1C219.119 1762.78 195.484 1764.3 171.993 1762.18C164.396 1761.49 150.311 1761.96 145.737 1755.23C143.304 1751.66 141.626 1747.6 140.827 1743.34C140.444 1741.32 139.036 1732.64 140.98 1731.19C128.261 1740.67 119.249 1754.63 114.317 1769.71C111.482 1778.38 109.536 1788.03 108.995 1797.8C108.062 1814.72 111.355 1831.98 121.603 1845C130.003 1855.66 142.558 1862.5 155.673 1866.02C168.783 1869.53 182.526 1869.96 196.092 1869.65C244.094 1868.58 291.671 1858.37 336.456 1840.97C333.2 1848.03 330.14 1855.19 327.538 1862.52C323.138 1874.87 319.85 1887.61 316.568 1900.32C311.572 1920 306.408 1939.66 301.334 1959.32C300.281 1963.41 297.156 1969.91 297.555 1974.07C297.902 1977.64 300.981 1979.12 304.054 1980.76C311.86 1984.94 321.072 1985.86 329.787 1985.69C335.744 1985.57 352.036 1985.8 355.933 1980.31C357.378 1978.28 407.642 1852.92 417.403 1827.54C423.019 1812.94 428.55 1799 427.321 1783.01Z" fill="#424242"/>
<path d="M527.386 1790.11C526.124 1787.24 524.091 1784.79 522.097 1782.38C523.195 1782.16 523.633 1780.69 523.202 1779.66C522.757 1778.63 521.777 1777.95 520.835 1777.34C516.657 1774.6 512.466 1771.86 508.276 1769.11C505.673 1767.4 503.045 1765.68 500.188 1764.44C496.821 1762.97 493.199 1762.19 489.57 1761.58C483.006 1760.5 475.932 1760.41 469.531 1758.55C464.556 1757.12 434.9 1735.27 430.323 1730.61C415.953 1715.99 402.622 1700.36 388.061 1685.93C373.495 1671.49 357.529 1658.16 339.151 1649.06C334.875 1646.95 330.383 1645.04 325.637 1644.58C324.872 1644.51 324.041 1644.48 323.394 1644.9C322.59 1645.43 322.335 1646.47 322.158 1647.41C319.517 1662.39 324.336 1680.63 333.953 1692.21C339.314 1698.65 345.329 1706.15 352.22 1711.02C358.647 1715.55 364.858 1719.8 370.971 1724.99C378.189 1731.09 385.4 1737.21 392.618 1743.33C403.844 1752.83 415.096 1762.37 427.263 1770.68C439.097 1778.75 451.205 1786.65 464.118 1792.94C476.573 1799 490.002 1803.46 502.986 1808.43C506.21 1809.67 509.832 1810.92 513.029 1809.59C513.807 1809.26 514.526 1808.79 515.35 1808.6C517.115 1808.16 519.102 1809.04 520.73 1808.24C521.522 1807.86 522.09 1807.14 522.626 1806.45C523.601 1805.19 524.575 1803.93 525.555 1802.67C526.399 1801.59 527.249 1800.49 527.805 1799.23C529.073 1796.38 528.648 1792.98 527.386 1790.11Z" fill="#FFB78C"/>
<path d="M338.274 1588.74C335.547 1578.17 332.769 1567.46 327.355 1557.98C321.955 1548.5 313.514 1540.23 302.962 1537.47C289.128 1533.85 274.62 1540.19 262.799 1548.24C251.671 1555.82 241.721 1565.01 232.299 1574.64C211.574 1595.81 193.261 1619.19 175.294 1642.76C165.435 1655.69 155.665 1668.68 145.993 1681.75C137.124 1693.74 128.287 1705.85 121.695 1719.22C119.882 1722.9 117.019 1728 118.352 1732.15C119.767 1736.54 123.996 1741.04 127.025 1744.4C133.9 1752.04 142.402 1758.17 151.612 1762.7C166.266 1769.9 182.571 1773.19 198.844 1774.53C207.664 1775.25 216.575 1775.43 225.33 1774.11C233.012 1772.97 244.1 1771.09 249.396 1765.17C255.862 1757.92 283.224 1725.24 291.364 1716.96C291.867 1716.44 292.41 1715.91 293.103 1715.72C294.142 1715.44 295.208 1715.99 296.176 1716.46C304.688 1720.66 314.979 1720.39 323.838 1716.99C332.697 1713.59 340.222 1707.3 346.322 1700.03C353.037 1692.02 358.254 1682.54 360.209 1672.27C361.503 1665.42 361.281 1658.23 359.274 1651.53C357.312 1645.02 352.5 1640.58 350.023 1634.5C347.551 1628.42 346.655 1621.23 345.021 1614.88C342.772 1606.17 340.523 1597.45 338.274 1588.74Z" fill="#D9D9D9"/>
<path d="M316.679 1530.97C315.921 1531.2 315.065 1531.51 314.81 1532.25C314.594 1532.92 314.966 1533.61 315.346 1534.19C317.497 1537.54 320.295 1540.43 322.681 1543.62C328.154 1550.99 331.266 1559.9 332.959 1568.93C334.659 1577.94 335.005 1587.16 335.457 1596.33C335.659 1600.52 336.228 1605.34 339.732 1607.64C340.112 1607.89 340.53 1608.11 340.981 1608.12C342.027 1608.12 342.707 1607.05 343.191 1606.12C346.931 1599.05 351.717 1592.43 357.915 1587.38C364.113 1582.32 371.814 1578.91 379.81 1578.62C374.828 1569.62 374.064 1558.93 374.175 1548.65C374.273 1538.37 375.129 1527.97 372.978 1517.92C372.181 1514.2 370.919 1510.46 368.349 1507.67C365.701 1504.8 361.739 1503.17 357.836 1503.36C349.167 1503.77 344.917 1511.2 339.621 1516.73C333.332 1523.3 325.382 1528.29 316.679 1530.97Z" fill="#FFB78C"/>
<path d="M419.691 1461.77C431.695 1465.85 441.626 1474.6 448.367 1485.22C453.898 1493.92 458.03 1503.83 456.847 1514.27C456.069 1521.11 454.375 1527.78 452.774 1534.44C451.244 1540.79 448.929 1547.76 443.156 1550.83C441.528 1551.7 439.619 1552.25 438.488 1553.72C437.638 1554.84 437.39 1556.29 437.161 1557.69C436.572 1561.43 435.99 1565.17 435.396 1568.92C434.866 1572.26 433.663 1576.33 430.329 1576.94C429.126 1577.15 427.903 1576.83 426.693 1576.68C421.09 1576 415.736 1579.15 411.48 1582.85C407.21 1586.54 403.457 1590.95 398.508 1593.65C389.734 1598.44 377.842 1596.58 370.937 1589.35C368.133 1586.39 366.139 1582.71 364.857 1578.84C364.445 1577.61 364.086 1576.31 363.249 1575.32C362.497 1574.42 361.438 1573.85 360.431 1573.27C341.451 1562.36 331.291 1540.32 328.159 1518.64C327.028 1510.75 326.708 1502.47 329.663 1495.06C332.461 1488.04 337.953 1482.47 343.667 1477.54C352.082 1470.28 361.51 1463.85 372.193 1460.78C379.79 1458.59 387.792 1458.16 395.703 1458.29C403.817 1458.42 412.016 1459.15 419.691 1461.77Z" fill="#FFE5CC"/>
<path d="M455.461 1525.27C454.186 1527.3 452.316 1529.1 449.531 1530.91C443.994 1534.54 437.554 1536.74 431.212 1538.49C422.209 1540.97 412.892 1542.3 404.014 1545.2C395.142 1548.1 386.453 1552.85 381.17 1560.54C376.005 1568.06 376.436 1576.95 372.592 1585.06C372.043 1586.21 371.422 1587.4 370.369 1588.12C369.375 1588.81 368.14 1589.02 366.937 1589.16C345.858 1591.71 324.544 1580.75 311.383 1564.09C298.216 1547.44 292.469 1525.85 291.743 1504.64C291.684 1503.1 291.671 1501.51 292.299 1500.12C293.018 1498.51 294.502 1497.37 295.927 1496.32C307.67 1487.65 319.7 1479.36 331.984 1471.48C342.694 1464.61 353.704 1458.01 365.747 1453.93C387.185 1446.65 412.023 1448.2 431.074 1460.42C441.744 1467.27 450.165 1477.58 454.899 1489.33C459.149 1499.88 461.895 1515.01 455.461 1525.27Z" fill="#733118"/>
<path d="M587.627 1982.28L413.611 1881.81L586.541 1781.97L760.557 1882.44L587.627 1982.28Z" fill="#F2F2F2"/>
<path d="M587.568 1971.31L432.598 1881.84L586.6 1792.92L741.577 1882.4L587.568 1971.31Z" fill="#E6E6E6"/>
<path d="M587.627 2070.57V1982.28L760.557 1882.44V1970.73L587.627 2070.57Z" fill="#BFBFBF"/>
<path d="M413.611 1881.81V1970.1L587.627 2070.57V1982.28L413.611 1881.81Z" fill="#E6E6E6"/>
<path d="M470.367 1903.65L458.109 1896.61L456.029 1868.29L451.682 1807.81L463.849 1813.72L467.327 1861.77L470.367 1903.65Z" fill="#4D4D4D"/>
<path d="M463.842 1813.71L451.643 1807.81L603.429 1720.16L615.629 1726.07L463.842 1813.71Z" fill="#737373"/>
<path d="M628.771 1907.22L562.992 1945.18L552.649 1951.18L551.786 1951.7L551.701 1950.58L545.182 1946.84L532.93 1939.79L526.497 1936.06L514.245 1929.03L507.726 1925.28L495.48 1918.16L489.139 1914.51L476.801 1907.39L470.368 1903.65L467.328 1861.77L463.85 1813.72L615.649 1726.04L616.257 1734.73L617.211 1747.07L617.819 1755.76V1755.84L618.696 1768.19L619.304 1776.87L620.258 1789.3L620.866 1797.9L621.736 1810.32L621.997 1813.37L622.344 1819.01L623.298 1831.44L628.771 1907.22Z" fill="#1F2125"/>
<path d="M489.138 1914.51L476.801 1907.39L473.237 1858.38L470.367 1818.93L482.613 1824.84L484.528 1851.86L489.138 1914.51Z" fill="#4D4D4D"/>
<path d="M482.581 1824.84L470.375 1818.94L622.168 1731.3L634.368 1737.21L482.581 1824.84Z" fill="#737373"/>
<path d="M647.541 1918.34L571.687 1962.13L563.952 1957.7L552.648 1951.18L551.785 1951.7L551.7 1950.58L545.182 1946.84L532.93 1939.79L526.496 1936.06L514.244 1929.03L507.726 1925.28L495.48 1918.16L489.138 1914.51L484.529 1851.86L482.613 1824.84L617.211 1747.07L634.334 1737.16L634.942 1745.94L635.897 1758.27L636.511 1766.88L637.368 1779.39L638.067 1787.99L638.943 1800.42L639.545 1809.02V1809.11L640.506 1821.45V1821.53L640.676 1824.14L647.541 1918.34Z" fill="#1F2125"/>
<path d="M507.726 1925.28L495.48 1918.16L490.44 1848.47L489.139 1830.05L501.299 1835.96L501.731 1841.95L507.726 1925.28Z" fill="#4D4D4D"/>
<path d="M501.319 1835.97L489.119 1830.07L640.899 1742.44L653.105 1748.34L501.319 1835.97Z" fill="#737373"/>
<path d="M665.958 1926.07L587.581 1971.33L571.687 1962.13L563.952 1957.7L552.648 1951.18L551.785 1951.7L551.7 1950.58L545.182 1946.84L532.93 1939.79L526.496 1936.06L514.244 1929.03L507.726 1925.28L501.73 1841.95L501.299 1835.96L618.695 1768.19L653.105 1748.38L653.706 1756.97L654.667 1769.4L655.275 1778.01V1778.09L656.138 1790.43L656.753 1799.12L657.707 1811.55L659.362 1834.92L665.958 1926.07Z" fill="#1F2125"/>
<path d="M526.497 1936.06L514.245 1929.03L507.818 1841.17L520.071 1847.08L526.497 1936.06Z" fill="#4D4D4D"/>
<path d="M520.05 1847.11L507.85 1841.2L659.642 1753.57L671.842 1759.47L520.05 1847.11Z" fill="#737373"/>
<path d="M683.252 1916.07L665.959 1926.07L587.582 1971.33L571.688 1962.13L563.953 1957.7L552.649 1951.18L551.786 1951.7L551.701 1950.58L545.183 1946.84L532.931 1939.79L526.497 1936.06L520.07 1847.08L600.272 1800.86L620.259 1789.3L637.369 1779.39L654.668 1769.4L671.87 1759.5L672.484 1768.09L673.432 1780.52L674.047 1789.13L674.916 1801.63L678.126 1845.78L683.252 1916.07Z" fill="#1F2125"/>
<path d="M545.182 1946.84L532.93 1939.79L526.588 1852.3L538.749 1858.21L545.182 1946.84Z" fill="#4D4D4D"/>
<path d="M538.788 1858.24L526.588 1852.34L678.374 1764.7L690.574 1770.6L538.788 1858.24Z" fill="#737373"/>
<path d="M700.459 1906.17L683.251 1916.07L665.958 1926.07L587.58 1971.33L571.686 1962.13L563.952 1957.7L552.648 1951.18L551.785 1951.7L551.7 1950.58L545.181 1946.84L538.748 1858.21L619.211 1811.81L621.735 1810.32L638.943 1800.42L656.138 1790.43L673.431 1780.52L690.547 1770.62L691.162 1779.22L692.11 1791.64V1791.74L696.804 1856.56L700.459 1906.17Z" fill="#1F2125"/>
<path d="M563.952 1957.7L552.648 1951.18L551.785 1951.7L551.7 1950.58L545.352 1863.5L557.525 1869.41L562.991 1945.18L563.952 1957.7Z" fill="#4D4D4D"/>
<path d="M557.525 1869.37L545.318 1863.46L697.111 1775.83L709.311 1781.74L557.525 1869.37Z" fill="#737373"/>
<path d="M717.576 1896.17L700.459 1906.17L683.251 1916.07L665.958 1926.07L587.581 1971.33L571.687 1962.13L563.952 1957.7L562.991 1945.18L557.525 1869.41L623.298 1831.44L638.329 1822.75L640.506 1821.54L655.798 1812.68L657.707 1811.55L674.915 1801.63L692.11 1791.74L709.318 1781.74L715.49 1867.33L717.576 1896.17Z" fill="#1F2125"/>
<path d="M600.323 1924.19L622.271 1926.27V1936.04L585.396 1932.82L622.271 1887.12V1896.88L600.323 1924.19Z" fill="#F2F2F2"/>
<path d="M638.872 1939.8L631.785 1943.89C638.787 1918.15 644.018 1898.85 647.463 1886.02L655.315 1857.08L662.403 1852.98L638.872 1939.8Z" fill="#F2F2F2"/>
<path d="M692.275 1871.11L670.248 1869.09V1859.42L707.201 1862.5L670.248 1908.35V1898.48L692.275 1871.11Z" fill="#F2F2F2"/>
<path d="M570.85 1881.99C569.915 1880.57 568.555 1879.49 567.254 1878.41C563.508 1875.28 560.03 1871.84 556.774 1868.2C550.19 1860.85 544.273 1852.56 535.793 1847.52C529.412 1843.73 462.018 1809.94 444.569 1801.27C434.657 1796.34 424.602 1791.67 414.749 1786.63C403.216 1780.74 398.28 1769.63 393.324 1758.35C388.218 1746.71 383.098 1735.04 379.515 1722.84C376.338 1712.06 374.435 1700.96 372.082 1689.98C369.826 1679.41 366.171 1669 363.125 1658.56C361.15 1651.79 359.097 1644.93 355.299 1638.98C352.599 1634.76 349.088 1631.1 345.276 1627.85C340.418 1623.71 334.456 1620.04 328.12 1620.69C325.237 1620.98 322.517 1622.17 320.007 1623.6C302.844 1633.39 297.64 1652.46 299.771 1671C301.779 1688.51 310.01 1704.58 317.509 1720.53C324.805 1736.07 331.533 1751.89 339.47 1767.11C343.406 1774.68 347.643 1782.1 352.376 1789.22C359.418 1799.8 366.302 1808.66 376.351 1816.38C381.627 1820.42 387.721 1823.24 393.677 1826.11C401.444 1829.85 470.629 1854.09 482.293 1858.38C483.561 1858.85 484.784 1859.44 486.033 1859.95C487.249 1861.11 489.001 1861.56 490.661 1862.01C491.982 1862.36 493.1 1863.03 494.31 1863.55C495.585 1864.16 496.853 1864.78 498.128 1865.4C499.959 1866.59 501.698 1867.93 503.28 1869.59C506.562 1873.05 508.837 1877.3 511.648 1881.13C513.231 1883.29 514.996 1885.34 517.127 1886.97C520.115 1889.24 523.698 1890.58 527.281 1891.7C531.295 1892.94 535.388 1893.94 539.526 1894.68C545.371 1895.72 551.419 1896.24 557.225 1894.98C561.69 1894.02 565.927 1892 569.49 1889.12C570.294 1888.48 571.085 1887.77 571.51 1886.83C572.216 1885.28 571.778 1883.41 570.85 1881.99Z" fill="#FFE5CC"/>
<path d="M296.549 1651.7C296.301 1655.46 296.484 1659.4 296.863 1663.68C298.825 1685.54 305.761 1706.75 315 1726.66C315.869 1728.54 316.797 1730.47 318.34 1731.84C320.406 1733.68 323.532 1733.5 326.134 1733.76C336.163 1734.8 346.316 1732.13 355.391 1727.73C364.472 1723.33 372.612 1717.24 380.589 1711.06C381.21 1710.59 381.844 1710.08 382.151 1709.36C382.517 1708.53 382.367 1707.57 382.204 1706.67C379.288 1690.64 374.6 1674.94 368.696 1659.75C364.826 1649.81 360.334 1639.92 353.371 1631.84C348.193 1625.83 341.478 1620.84 333.842 1618.5C313.489 1612.23 297.739 1633.34 296.549 1651.7Z" fill="#F2F2F2"/>
<path d="M227.926 1230.32L171.02 1263.39C171.216 1263.27 171.392 1263.13 171.562 1262.97L228.475 1229.89C228.305 1230.06 228.122 1230.2 227.926 1230.32Z" fill="#4D4BB7"/>
<path d="M95.7227 1103.61L152.634 1070.53C153.237 1070.18 153.99 1070.07 154.861 1070.25L97.9502 1103.32C97.0793 1103.14 96.3255 1103.26 95.7227 1103.61Z" fill="#4D4BB7"/>
<path d="M183.697 1250.81L240.61 1217.74L228.476 1229.89L171.562 1262.97L183.697 1250.81Z" fill="#4D4BB7"/>
<path d="M97.9492 1103.32L154.86 1070.25L174.438 1074.25L117.527 1107.32L97.9492 1103.32Z" fill="#4D4BB7"/>
<path d="M310.135 1295.85L253.229 1328.92C254.209 1328.35 254.817 1327.12 254.824 1325.36L311.737 1292.28C311.731 1294.05 311.116 1295.27 310.135 1295.85Z" fill="#4D4BB7"/>
<path d="M254.888 1301.79L311.801 1268.72L311.736 1292.28L254.822 1325.36L254.888 1301.79Z" fill="#4D4BB7"/>
<path d="M106.459 1014.16L163.37 981.088C164.396 980.493 165.808 980.624 167.286 981.474C167.855 981.807 168.443 982.245 169.019 982.801L112.106 1015.87C111.531 1015.32 110.947 1014.88 110.372 1014.55C108.898 1013.69 107.483 1013.57 106.459 1014.16Z" fill="#4D4BB7"/>
<path d="M112.105 1015.87L169.018 982.801L188.514 1001.34L131.602 1034.42L112.105 1015.87Z" fill="#4D4BB7"/>
<path d="M175.19 1058.85L232.097 1025.78C217.517 1034.25 208.469 1052.27 208.397 1077.88C208.253 1129.51 244.552 1192.38 289.475 1218.33L232.568 1251.39C187.639 1225.46 151.339 1162.58 151.487 1110.96C151.561 1085.35 160.605 1067.33 175.19 1058.85Z" fill="#4D4BB7"/>
<path d="M347.317 1223.98L290.41 1257.05C275.621 1265.64 255.151 1264.43 232.568 1251.4L289.475 1218.33C312.07 1231.36 332.534 1232.57 347.317 1223.98Z" fill="#4D4BB7"/>
<path d="M386.029 1298.72L329.115 1331.79C330.992 1330.7 331.325 1327.42 329.704 1323.88L386.617 1290.8C388.238 1294.34 387.905 1297.63 386.029 1298.72Z" fill="#4D4BB7"/>
<path d="M317.641 1297.8L374.554 1264.73L386.617 1290.8L329.703 1323.88L317.641 1297.8Z" fill="#4D4BB7"/>
<path d="M334.064 1281.52L390.977 1248.44C386.388 1255.11 380.876 1260.54 374.554 1264.73L317.641 1297.8C323.963 1293.6 329.474 1288.18 334.064 1281.52Z" fill="#4D4BB7"/>
<path d="M172.359 982.676L229.266 949.601L241.296 975.661L184.383 1008.73L172.359 982.676Z" fill="#4D4BB7"/>
<path d="M224.839 944.41C223.708 943.756 222.564 943.501 221.577 943.756L194.117 950.791C193.862 950.856 193.634 950.954 193.424 951.078L136.516 984.147C136.725 984.03 136.955 983.925 137.203 983.866L164.67 976.838C165.657 976.57 166.802 976.831 167.926 977.485C169.619 978.459 171.28 980.323 172.359 982.676L229.266 949.601C228.187 947.254 226.533 945.384 224.839 944.41Z" fill="#9996FF"/>
<path d="M416.083 1268.66L359.176 1301.72C359.758 1301.38 360.228 1300.81 360.496 1299.99L417.41 1266.92C417.135 1267.73 416.678 1268.31 416.083 1268.66Z" fill="#4D4BB7"/>
<path d="M184.383 1008.73L241.296 975.662C249.593 976.041 258.406 977.78 267.657 981.042L210.737 1014.12C201.486 1010.86 192.686 1009.12 184.383 1008.73Z" fill="#4D4BB7"/>
<path d="M371.094 1269.02L428.007 1235.95L417.409 1266.92L360.496 1299.99L371.094 1269.02Z" fill="#4D4BB7"/>
<path d="M424.458 1225.9L404.929 1207.32L348.016 1240.4L367.551 1258.97C370.454 1261.74 372.023 1266.22 371.095 1269.03L428.008 1235.95C428.943 1233.14 427.361 1228.68 424.458 1225.9Z" fill="#9996FF"/>
<path d="M348.101 1208.58L405.014 1175.51C405.55 1181.03 405.831 1186.53 405.811 1191.86C405.798 1197.28 405.498 1202.44 404.929 1207.32L348.016 1240.4C348.578 1235.51 348.885 1230.35 348.905 1224.94C348.918 1219.6 348.643 1214.1 348.101 1208.58Z" fill="#4D4BB7"/>
<path d="M255.633 1040.03L312.54 1006.96C321.778 1014.37 330.571 1022.79 338.881 1032L281.968 1065.08C273.658 1055.86 264.871 1047.44 255.633 1040.03Z" fill="#4D4BB7"/>
<path d="M255.692 1016.42L312.611 983.351L312.54 1006.96L255.633 1040.04L255.692 1016.42Z" fill="#4D4BB7"/>
<path d="M307.101 973.812L273.261 954.27C271.724 953.387 270.332 953.302 269.325 953.884L212.418 986.96C213.425 986.371 214.817 986.456 216.354 987.345L250.195 1006.89C253.248 1008.65 255.706 1012.91 255.693 1016.42L312.613 983.351C312.619 979.833 310.161 975.577 307.101 973.812Z" fill="#9996FF"/>
<path d="M318.156 1116.35L375.063 1083.28C381.34 1094.71 386.805 1106.51 391.349 1118.45L334.429 1151.52C329.892 1139.58 324.433 1127.77 318.156 1116.35Z" fill="#4D4BB7"/>
<path d="M426.818 1179.23L369.904 1212.3C371.323 1211.48 371.911 1209.37 371.271 1206.66L428.184 1173.58C428.825 1176.29 428.23 1178.4 426.818 1179.23Z" fill="#4D4BB7"/>
<path d="M360.883 1163.57L417.79 1130.49L428.185 1173.58L371.272 1206.66L360.883 1163.57Z" fill="#4D4BB7"/>
<path d="M412.598 1123.11C412.029 1122.78 411.454 1122.55 410.885 1122.44L391.349 1118.45L334.43 1151.52L353.972 1155.52C354.541 1155.62 355.116 1155.85 355.685 1156.18C357.999 1157.52 360.15 1160.46 360.882 1163.57L417.789 1130.49C417.063 1127.39 414.906 1124.44 412.598 1123.11Z" fill="#9996FF"/>
<path d="M330.33 1104.26L387.237 1071.19L375.063 1083.28L318.156 1116.35L330.33 1104.26Z" fill="#4D4BB7"/>
<path d="M232.568 1251.39C277.457 1277.31 313.992 1256.49 314.142 1204.86C314.286 1153.29 277.987 1090.45 233.097 1064.53C188.168 1038.6 151.635 1059.37 151.487 1110.96C151.339 1162.58 187.638 1225.46 232.568 1251.39ZM367.551 1258.97C370.454 1261.74 372.023 1266.22 371.095 1269.02L360.497 1299.99C359.751 1302.22 357.568 1302.69 355.253 1301.36C354.691 1301.03 354.122 1300.6 353.56 1300.06L334.063 1281.52C329.474 1288.18 323.962 1293.6 317.64 1297.8L329.703 1323.88C331.501 1327.8 330.899 1331.39 328.46 1332.06L300.962 1339.07C299.994 1339.34 298.863 1339.08 297.738 1338.44C296.039 1337.45 294.358 1335.57 293.273 1333.24L281.289 1307.15C272.946 1306.79 264.133 1305.05 254.888 1301.79L254.823 1325.36C254.816 1328.92 252.339 1330.28 249.279 1328.52L215.438 1308.98C212.378 1307.21 209.92 1303 209.926 1299.44L209.998 1275.87C200.76 1268.46 191.967 1260.04 183.696 1250.81L171.562 1262.97C170.47 1264.05 168.796 1263.99 167.096 1263.01C165.972 1262.36 164.84 1261.31 163.866 1259.92L136.531 1221.25C134.069 1217.75 133.492 1213.47 135.305 1211.64L147.475 1199.55C141.197 1188.09 135.735 1176.33 131.234 1164.41L111.694 1160.42C111.125 1160.31 110.548 1160.07 109.981 1159.75C107.647 1158.4 105.478 1155.42 104.748 1152.34L94.3582 1109.25C93.4468 1105.38 95.0375 1102.73 97.9495 1103.32L117.528 1107.32C117.024 1101.83 116.71 1096.3 116.725 1090.89C116.741 1085.55 117.086 1080.41 117.615 1075.51L98.0849 1056.94C95.1754 1054.16 93.6024 1049.69 94.5347 1046.88L105.133 1015.92C105.879 1013.66 108.045 1013.2 110.372 1014.55C110.946 1014.88 111.531 1015.32 112.106 1015.87L131.602 1034.42C136.156 1027.72 141.67 1022.26 147.988 1018.11L135.926 992.032C134.13 988.11 134.73 984.514 137.203 983.866L164.67 976.838C165.658 976.57 166.802 976.832 167.926 977.485C169.62 978.46 171.28 980.323 172.359 982.676L184.383 1008.73C192.686 1009.12 201.486 1010.86 210.737 1014.12L210.809 990.503C210.816 986.992 213.294 985.579 216.353 987.345L250.194 1006.89C253.247 1008.65 255.706 1012.91 255.692 1016.42L255.634 1040.03C264.872 1047.44 273.659 1055.86 281.969 1065.07L294.071 1052.94C295.156 1051.84 296.83 1051.9 298.523 1052.88C299.661 1053.54 300.798 1054.59 301.766 1055.99L329.134 1094.67C331.559 1098.15 332.141 1102.43 330.33 1104.26L318.157 1116.35C324.433 1127.77 329.892 1139.58 334.43 1151.52L353.972 1155.52C354.541 1155.62 355.116 1155.85 355.685 1156.18C357.999 1157.52 360.15 1160.46 360.882 1163.57L371.271 1206.66C372.187 1210.53 370.591 1213.17 367.675 1212.59L348.101 1208.58C348.643 1214.1 348.918 1219.6 348.905 1224.94C348.885 1230.35 348.578 1235.51 348.016 1240.4L367.551 1258.97Z" fill="#6865F7"/>
<path d="M386.047 1061.6L358.672 1022.91C357.705 1021.52 356.567 1020.46 355.436 1019.81C354.017 1018.99 352.605 1018.81 351.546 1019.43L294.633 1052.5C295.692 1051.89 297.104 1052.06 298.523 1052.88C299.661 1053.54 300.798 1054.59 301.766 1055.99L329.134 1094.67C331.559 1098.15 332.141 1102.43 330.33 1104.26L387.237 1071.19C389.048 1069.36 388.473 1065.08 386.047 1061.6Z" fill="#9996FF"/>
<path d="M410.578 1287.59L467.491 1254.52C467.635 1254.43 467.805 1254.36 467.975 1254.31L411.068 1287.39C410.892 1287.44 410.722 1287.5 410.578 1287.59Z" fill="#4D4BB7"/>
<path d="M539.702 1358.41L482.789 1391.48C483.207 1391.24 483.541 1390.82 483.73 1390.25L540.644 1357.18C540.448 1357.75 540.114 1358.17 539.702 1358.41Z" fill="#4D4BB7"/>
<path d="M411.068 1287.39L467.975 1254.31L479.9 1251.24L422.987 1284.31L411.068 1287.39Z" fill="#4D4BB7"/>
<path d="M488.316 1376.79L545.222 1343.71L540.646 1357.18L483.732 1390.25L488.316 1376.79Z" fill="#4D4BB7"/>
<path d="M399.502 1213.44L456.409 1180.37C457.134 1179.95 458.141 1180.01 459.259 1180.66L402.346 1213.74C401.228 1213.09 400.221 1213.02 399.502 1213.44Z" fill="#4D4BB7"/>
<path d="M402.346 1213.74L459.259 1180.66L473.95 1189.15L417.043 1222.22L402.346 1213.74Z" fill="#4D4BB7"/>
<path d="M599.185 1384.14L542.266 1417.21C543.272 1416.62 543.697 1415.11 543.24 1413.16L600.153 1380.09C600.604 1382.04 600.186 1383.55 599.185 1384.14Z" fill="#4D4BB7"/>
<path d="M538.756 1394.51L595.663 1361.44L600.154 1380.09L543.241 1413.16L538.756 1394.51Z" fill="#4D4BB7"/>
<path d="M596.629 1325.61L539.716 1358.68C529.137 1364.83 514.485 1363.97 498.33 1354.64L555.243 1321.57C571.399 1330.89 586.044 1331.75 596.629 1325.61Z" fill="#4D4BB7"/>
<path d="M457.285 1216.79L514.198 1183.71C503.744 1189.79 497.265 1202.7 497.212 1221.06C497.108 1258 523.096 1303.01 555.244 1321.57L498.33 1354.64C466.183 1336.08 440.195 1291.07 440.299 1254.13C440.358 1235.78 446.837 1222.86 457.285 1216.79Z" fill="#4D4BB7"/>
<path d="M425.197 1165.83L482.104 1132.76C482.876 1132.31 483.895 1132.44 484.928 1133.03C485.733 1133.5 486.543 1134.24 487.243 1135.23L430.323 1168.3C429.63 1167.32 428.819 1166.57 428.022 1166.11C426.989 1165.51 425.956 1165.38 425.197 1165.83Z" fill="#9996FF"/>
<path d="M628.724 1376.56L571.811 1409.63C571.954 1409.56 572.085 1409.45 572.209 1409.33L629.116 1376.26C628.992 1376.38 628.861 1376.48 628.724 1376.56Z" fill="#4D4BB7"/>
<path d="M430.322 1168.3L487.242 1135.23L499.109 1152.04L442.195 1185.11L430.322 1168.3Z" fill="#4D4BB7"/>
<path d="M442.195 1185.11L499.109 1152.04C503.979 1149.68 509.367 1148.27 515.159 1147.88L458.253 1180.96C452.46 1181.33 447.073 1182.76 442.195 1185.11Z" fill="#4D4BB7"/>
<path d="M586.523 1395L643.429 1361.93L629.118 1376.26L572.211 1409.33L586.523 1395Z" fill="#4D4BB7"/>
<path d="M642.566 1355.11L630.7 1338.3L573.793 1371.38L585.653 1388.19C587.418 1390.69 587.81 1393.76 586.522 1395L643.429 1361.93C644.724 1360.68 644.331 1357.61 642.566 1355.11Z" fill="#9996FF"/>
<path d="M579.965 1353.24L636.872 1320.17C635.564 1327.03 633.485 1333.08 630.7 1338.3L573.793 1371.38C576.572 1366.16 578.651 1360.11 579.965 1353.24Z" fill="#4D4BB7"/>
<path d="M484.365 1168.52L541.272 1135.45L545.757 1154.14L488.85 1187.22L484.365 1168.52Z" fill="#4D4BB7"/>
<path d="M537.56 1130.13C537.141 1129.9 536.723 1129.74 536.311 1129.66L513.238 1124.94C512.624 1124.83 512.088 1124.9 511.663 1125.16L454.756 1158.23C455.181 1157.98 455.71 1157.9 456.325 1158.01L479.398 1162.73C479.816 1162.81 480.234 1162.98 480.646 1163.21C482.3 1164.17 483.837 1166.28 484.366 1168.52L541.273 1135.45C540.75 1133.21 539.214 1131.1 537.56 1130.13Z" fill="#9996FF"/>
<path d="M654.413 1328.94L597.5 1362.01C598.206 1361.6 598.644 1360.73 598.651 1359.49L655.557 1326.42C655.557 1327.65 655.119 1328.52 654.413 1328.94Z" fill="#4D4BB7"/>
<path d="M488.852 1187.22L545.758 1154.14C549.04 1155.61 552.322 1157.21 555.703 1159.16C559.057 1161.1 562.332 1163.29 565.608 1165.6L508.701 1198.67C505.425 1196.36 502.143 1194.17 498.789 1192.24C495.409 1190.28 492.127 1188.68 488.852 1187.22Z" fill="#4D4BB7"/>
<path d="M574.016 1291.15L630.929 1258.08C633.668 1266.49 635.708 1274.91 636.983 1283.27L580.07 1316.34C578.795 1307.98 576.762 1299.55 574.016 1291.15Z" fill="#4D4BB7"/>
<path d="M598.722 1331.65L655.636 1298.57L655.557 1326.42L598.65 1359.49L598.722 1331.65Z" fill="#4D4BB7"/>
<path d="M651.673 1291.75L636.982 1283.27L580.068 1316.34L594.759 1324.83C596.969 1326.1 598.728 1329.11 598.721 1331.65L655.635 1298.57C655.641 1296.04 653.882 1293.02 651.673 1291.75Z" fill="#9996FF"/>
<path d="M539.232 1227.71L596.139 1194.63C601.912 1201.69 607.273 1209.32 612.118 1217.29L555.211 1250.37C550.367 1242.4 544.999 1234.76 539.232 1227.71Z" fill="#4D4BB7"/>
<path d="M543.802 1214.28L600.716 1181.21L596.139 1194.63L539.232 1227.71L543.802 1214.28Z" fill="#4D4BB7"/>
<path d="M598.185 1173.99L575.165 1152.09C574.746 1151.69 574.334 1151.37 573.916 1151.14C572.876 1150.53 571.876 1150.44 571.144 1150.87L514.23 1183.94C514.963 1183.51 515.963 1183.6 517.009 1184.2C517.421 1184.45 517.839 1184.76 518.251 1185.16L541.278 1207.06C543.338 1209.06 544.469 1212.25 543.802 1214.28L600.715 1181.21C601.382 1179.18 600.251 1175.98 598.185 1173.99Z" fill="#9996FF"/>
<path d="M555.211 1250.37L612.118 1217.29L624.043 1214.21L567.13 1247.29L555.211 1250.37Z" fill="#4D4BB7"/>
<path d="M498.33 1354.64C530.445 1373.18 556.603 1358.27 556.708 1321.33C556.806 1284.39 530.824 1239.38 498.71 1220.84C466.562 1202.28 440.404 1217.19 440.299 1254.13C440.194 1291.07 466.183 1336.08 498.33 1354.64ZM594.759 1324.83C596.969 1326.1 598.728 1329.11 598.721 1331.65L598.649 1359.49C598.643 1361.99 596.865 1363 594.655 1361.72L579.964 1353.24C578.65 1360.11 576.571 1366.16 573.792 1371.38L585.652 1388.19C587.417 1390.69 587.809 1393.76 586.521 1395L572.21 1409.33C571.419 1410.1 570.216 1410.07 568.986 1409.35C568.182 1408.9 567.372 1408.14 566.679 1407.15L554.812 1390.34C549.935 1392.69 544.547 1394.12 538.755 1394.51L543.24 1413.16C543.9 1415.96 542.749 1417.83 540.683 1417.41L517.604 1412.73C517.206 1412.64 516.807 1412.48 516.401 1412.26C514.741 1411.29 513.172 1409.16 512.642 1406.94L508.157 1388.25C504.881 1386.77 501.606 1385.14 498.252 1383.2C494.865 1381.25 491.59 1379.1 488.314 1376.79L483.731 1390.25C483.195 1391.86 481.626 1392.17 479.952 1391.21C479.56 1390.98 479.154 1390.67 478.756 1390.29L455.722 1368.36C453.669 1366.4 452.532 1363.21 453.199 1361.17L457.782 1347.75C452.009 1340.69 446.647 1333.06 441.796 1325.1L429.871 1328.17C429.178 1328.35 428.367 1328.16 427.563 1327.7C426.334 1327 425.131 1325.65 424.353 1323.97L410.165 1293.19C408.884 1290.45 409.296 1287.84 411.068 1287.39L422.986 1284.31C420.247 1275.91 418.207 1267.48 416.939 1259.12L402.248 1250.64C400.038 1249.36 398.273 1246.31 398.279 1243.81L398.364 1215.97C398.371 1213.43 400.136 1212.46 402.346 1213.74L417.043 1222.22C418.351 1215.34 420.437 1209.3 423.222 1204.09L411.349 1187.27C409.59 1184.77 409.191 1181.7 410.486 1180.41L424.804 1166.13C425.582 1165.35 426.792 1165.39 428.021 1166.11C428.818 1166.57 429.629 1167.32 430.322 1168.3L442.195 1185.11C447.072 1182.76 452.46 1181.33 458.252 1180.95L453.767 1162.3C453.114 1159.5 454.264 1157.63 456.324 1158.01L479.396 1162.73C479.815 1162.8 480.233 1162.97 480.645 1163.21C482.299 1164.16 483.836 1166.28 484.365 1168.52L488.85 1187.22C492.126 1188.68 495.408 1190.28 498.788 1192.24C502.142 1194.17 505.424 1196.36 508.7 1198.67L513.27 1185.21C513.806 1183.59 515.355 1183.25 517.009 1184.2C517.421 1184.45 517.84 1184.76 518.252 1185.16L541.278 1207.06C543.338 1209.05 544.469 1212.25 543.802 1214.28L539.232 1227.71C544.999 1234.76 550.366 1242.4 555.211 1250.37L567.13 1247.29C567.836 1247.11 568.646 1247.29 569.444 1247.75C570.667 1248.47 571.876 1249.82 572.654 1251.49L586.842 1282.23C588.123 1285.01 587.711 1287.61 585.939 1288.07L574.014 1291.15C576.76 1299.55 578.793 1307.97 580.068 1316.34L594.759 1324.83Z" fill="#6865F7"/>
<path d="M643.75 1249.16L629.562 1218.42C628.791 1216.74 627.581 1215.39 626.359 1214.68C625.554 1214.22 624.75 1214.03 624.044 1214.21L567.131 1247.29C567.837 1247.11 568.648 1247.29 569.445 1247.75C570.668 1248.47 571.877 1249.82 572.655 1251.49L586.843 1282.24C588 1284.73 587.778 1287.09 586.431 1287.87L643.338 1254.8C644.691 1254.02 644.907 1251.66 643.75 1249.16Z" fill="#9996FF"/>
<path fill-rule="evenodd" clip-rule="evenodd" d="M2086.7 1800.2V1789.3L2071.55 1780.55V1791.45L2086.7 1800.2Z" fill="#231F20"/>
<path fill-rule="evenodd" clip-rule="evenodd" d="M2113.86 1815.89V1804.99L2098.72 1796.24V1807.14L2113.86 1815.89Z" fill="#231F20"/>
<path fill-rule="evenodd" clip-rule="evenodd" d="M2142.53 1832.26L2137.93 1818.88L2124.74 1811.26L2126.38 1823.1C2131.78 1826.23 2137.22 1829.39 2142.53 1832.26Z" fill="#231F20"/>
<path fill-rule="evenodd" clip-rule="evenodd" d="M2005.09 1753.08V1742.19L1989.94 1733.44V1744.34L2005.09 1753.08Z" fill="#231F20"/>
<path fill-rule="evenodd" clip-rule="evenodd" d="M2032.26 1768.77V1757.87L2017.11 1749.13V1760.02L2032.26 1768.77Z" fill="#231F20"/>
<path fill-rule="evenodd" clip-rule="evenodd" d="M2059.34 1784.41V1773.51L2044.19 1764.76V1775.66L2059.34 1784.41Z" fill="#231F20"/>
<path fill-rule="evenodd" clip-rule="evenodd" d="M1930.04 1688.35L1939.1 1686.94L1939.07 1671.79L1929.58 1669.78C1929.6 1676 1929.72 1682.19 1930.04 1688.35Z" fill="#231F20"/>
<path fill-rule="evenodd" clip-rule="evenodd" d="M1948.79 1720.11L1954.49 1712.97C1950.09 1710.38 1945.76 1705.56 1942.89 1700.07L1934.89 1704.24C1938.4 1710.89 1943.56 1716.78 1948.79 1720.11Z" fill="#231F20"/>
<path fill-rule="evenodd" clip-rule="evenodd" d="M1977.54 1737.17L1978.08 1726.59L1964.88 1718.97L1961.32 1727.79L1977.54 1737.17Z" fill="#231F20"/>
<path fill-rule="evenodd" clip-rule="evenodd" d="M1929.57 1592.29L1939.07 1597.77V1580.38L1929.57 1574.91V1592.29Z" fill="#231F20"/>
<path fill-rule="evenodd" clip-rule="evenodd" d="M1929.57 1623.46L1939.07 1628.95V1611.56L1929.57 1606.08V1623.46Z" fill="#231F20"/>
<path fill-rule="evenodd" clip-rule="evenodd" d="M1929.57 1654.78L1939.07 1659.58V1642.64L1929.57 1637.16V1654.78Z" fill="#231F20"/>
<path fill-rule="evenodd" clip-rule="evenodd" d="M1929.57 1498.64L1939.07 1504.12V1488.35L1929.57 1480.38V1498.64Z" fill="#231F20"/>
<path fill-rule="evenodd" clip-rule="evenodd" d="M1929.57 1529.82L1939.07 1535.3V1517.92L1929.57 1512.43V1529.82Z" fill="#231F20"/>
<path fill-rule="evenodd" clip-rule="evenodd" d="M1929.57 1560.89L1939.07 1566.38V1548.99L1929.57 1543.51V1560.89Z" fill="#231F20"/>
<path fill-rule="evenodd" clip-rule="evenodd" d="M1969.79 1458.62L1971.78 1470.66L1985.65 1478.67V1467.78L1969.79 1458.62Z" fill="#231F20"/>
<path fill-rule="evenodd" clip-rule="evenodd" d="M1941.43 1444.87L1948.31 1458.69C1952.37 1458.77 1956.97 1462.29 1961.31 1464.62L1956.97 1451.33C1951.69 1448.64 1946.29 1444.84 1941.43 1444.87Z" fill="#231F20"/>
<path fill-rule="evenodd" clip-rule="evenodd" d="M1929.71 1465.53L1939.07 1476.15C1939.09 1473.63 1939.02 1471.08 1939.12 1468.61C1939.25 1466.18 1939.85 1464.04 1940.88 1462.4L1932.41 1449.4C1931.13 1451.33 1930.33 1453.83 1930.07 1456.68C1929.84 1459.53 1929.81 1462.53 1929.71 1465.53Z" fill="#231F20"/>
<path fill-rule="evenodd" clip-rule="evenodd" d="M2052.11 1506.14V1517.04L2067.25 1525.79V1514.89L2052.11 1506.14Z" fill="#231F20"/>
<path fill-rule="evenodd" clip-rule="evenodd" d="M2024.94 1490.46V1501.36L2040.09 1510.1V1499.21L2024.94 1490.46Z" fill="#231F20"/>
<path fill-rule="evenodd" clip-rule="evenodd" d="M1997.86 1474.82V1485.72L2013.01 1494.47V1483.57L1997.86 1474.82Z" fill="#231F20"/>
<path fill-rule="evenodd" clip-rule="evenodd" d="M2134.86 1553.94L2131.63 1562.95C2136.03 1565.53 2140.43 1567.95 2144.82 1570.66L2150.78 1563.75C2145.57 1560.26 2140.26 1557.13 2134.86 1553.94Z" fill="#231F20"/>
<path fill-rule="evenodd" clip-rule="evenodd" d="M2106.55 1537.58V1548.48L2121.17 1556.92L2121.99 1546.49L2106.55 1537.58Z" fill="#231F20"/>
<path fill-rule="evenodd" clip-rule="evenodd" d="M2079.47 1521.94V1532.84L2094.61 1541.58V1530.69L2079.47 1521.94Z" fill="#231F20"/>
<path fill-rule="evenodd" clip-rule="evenodd" d="M2168.43 1643.67L2158.93 1638.19V1655.57L2168.43 1661.05V1643.67Z" fill="#231F20"/>
<path fill-rule="evenodd" clip-rule="evenodd" d="M2168.42 1611.14L2158.93 1609.49V1624.62L2168.43 1629.76L2168.42 1611.14Z" fill="#231F20"/>
<path fill-rule="evenodd" clip-rule="evenodd" d="M2162.08 1576.69L2154.27 1581.18C2157.45 1586.55 2159.1 1592.63 2158.93 1597.56L2168.08 1596.52C2168.05 1590.51 2165.93 1583.19 2162.08 1576.69Z" fill="#231F20"/>
<path fill-rule="evenodd" clip-rule="evenodd" d="M2168.43 1737.32L2158.93 1731.84V1749.22L2168.43 1754.71V1737.32Z" fill="#231F20"/>
<path fill-rule="evenodd" clip-rule="evenodd" d="M2168.43 1706.15L2158.93 1700.66V1718.04L2168.43 1723.53V1706.15Z" fill="#231F20"/>
<path fill-rule="evenodd" clip-rule="evenodd" d="M2168.43 1675.07L2158.93 1669.59V1686.97L2168.43 1692.46V1675.07Z" fill="#231F20"/>
<path fill-rule="evenodd" clip-rule="evenodd" d="M2166.39 1832L2157.75 1819.22C2156.1 1822.95 2152.62 1824.69 2148.46 1823.94L2155.11 1837.78C2160.07 1838.49 2164.27 1836.39 2166.39 1832Z" fill="#231F20"/>
<path fill-rule="evenodd" clip-rule="evenodd" d="M2168.43 1800.55L2158.93 1792.92V1808.06L2168.25 1818.95C2168.44 1812.99 2168.44 1806.76 2168.43 1800.55Z" fill="#231F20"/>
<path fill-rule="evenodd" clip-rule="evenodd" d="M2168.43 1768.72L2158.93 1763.24V1780.62L2168.43 1786.1V1768.72Z" fill="#231F20"/>
<path d="M2127.29 1859L1987.44 1778.27C1984.8 1776.74 1982.38 1776.6 1980.63 1777.61L1957.79 1790.88C1959.55 1789.86 1961.97 1790.01 1964.61 1791.54L2104.45 1872.27C2109.75 1875.34 2114.02 1882.72 2114 1888.82L2113.55 2049.5C2113.54 2052.48 2112.48 2054.59 2110.78 2055.58L2133.61 2042.31C2135.32 2041.32 2136.37 2039.21 2136.38 2036.23L2136.84 1875.55C2136.85 1869.45 2132.59 1862.06 2127.29 1859Z" fill="#4D4D4D"/>
<path d="M2104.45 1872.27C2109.75 1875.34 2114.02 1882.72 2114 1888.82L2113.55 2049.5C2113.53 2055.52 2109.23 2057.96 2103.93 2054.9L1964.1 1974.17C1958.85 1971.14 1954.53 1963.72 1954.54 1957.69L1955 1797.02C1955.02 1790.92 1959.38 1788.51 1964.61 1791.54L2104.45 1872.27Z" fill="black"/>
<path d="M2127.29 1585.34L1987.44 1504.61C1984.8 1503.08 1982.38 1502.93 1980.63 1503.95L1957.79 1517.22C1959.55 1516.2 1961.97 1516.35 1964.61 1517.88L2104.45 1598.61C2109.75 1601.67 2114.02 1609.05 2114 1615.16L2113.55 1775.83C2113.54 1778.82 2112.48 1780.92 2110.78 1781.92L2133.61 1768.64C2135.32 1767.66 2136.37 1765.55 2136.38 1762.57L2136.84 1601.88C2136.85 1595.78 2132.59 1588.4 2127.29 1585.34Z" fill="#7981F2"/>
<path d="M2104.45 1598.61C2109.75 1601.67 2114.02 1609.05 2114 1615.16L2113.55 1775.83C2113.53 1781.86 2109.23 1784.3 2103.93 1781.24L1964.1 1700.5C1958.85 1697.48 1954.53 1690.06 1954.54 1684.03L1955 1523.36C1955.02 1517.25 1959.38 1514.85 1964.61 1517.88L2104.45 1598.61Z" fill="#4D4BB7"/>
<path d="M2127.29 1311.68L1987.44 1230.94C1984.8 1229.41 1982.38 1229.27 1980.63 1230.28L1957.79 1243.56C1959.55 1242.54 1961.97 1242.68 1964.61 1244.21L2104.45 1324.94C2109.75 1328.01 2114.02 1335.39 2114 1341.49L2113.55 1502.17C2113.54 1505.15 2112.48 1507.26 2110.78 1508.25L2133.61 1494.98C2135.32 1493.99 2136.37 1491.88 2136.38 1488.9L2136.84 1328.22C2136.85 1322.12 2132.59 1314.74 2127.29 1311.68Z" fill="white"/>
<path d="M2104.45 1324.94C2109.75 1328.01 2114.02 1335.39 2114 1341.49L2113.55 1502.17C2113.53 1508.19 2109.23 1510.64 2103.93 1507.57L1964.1 1426.84C1958.85 1423.81 1954.53 1416.39 1954.54 1410.37L1955 1249.69C1955.02 1243.59 1959.38 1241.19 1964.61 1244.21L2104.45 1324.94Z" fill="#E6E6E6"/>
<path d="M2127.29 1055.2L1987.44 974.465C1984.8 972.935 1982.38 972.792 1980.63 973.811L1957.79 987.077C1959.55 986.064 1961.97 986.208 1964.61 987.731L2104.45 1068.47C2109.75 1071.53 2114.02 1078.91 2114 1085.01L2113.55 1245.69C2113.54 1248.68 2112.48 1250.77 2110.78 1251.77L2133.61 1238.5C2135.32 1237.51 2136.37 1235.4 2136.38 1232.42L2136.84 1071.74C2136.85 1065.64 2132.59 1058.26 2127.29 1055.2Z" fill="#ADDAFF"/>
<path d="M2104.45 1068.47C2109.75 1071.53 2114.02 1078.91 2114 1085.01L2113.55 1245.69C2113.53 1251.72 2109.23 1254.16 2103.93 1251.09L1964.1 1170.36C1958.85 1167.34 1954.53 1159.92 1954.54 1153.89L1955 993.21C1955.02 987.11 1959.38 984.704 1964.61 987.731L2104.45 1068.47Z" fill="#80C5FF"/>
</svg>
